<svg xmlns="http://www.w3.org/2000/svg" width="32" height="32" viewBox="0 0 32 32" id="discussion"><g transform="translate(1825.525 506.541)"><path fill="#a2d483" d="m -1819.5406,-500.5446 c -2.1448,1.8651 -3.45,4.3267 -3.4837,7.0092 -0.067,5.3651 4.9689,9.9263 11.7373,10.6249 l -1.1738,5.8696 7.6297,-6.4566 c 6.4074,-1.8509 10.01,-7.1453 8.4435,-12.3676 -1.5664,-5.2222 -7.8468,-8.7034 -14.6315,-8.1099 -1.6961,0.1484 -3.2903,0.5397 -4.7286,1.1271"></path><path fill="#dae794" fill-rule="evenodd" d="m -1803.025,-497.0979 c 0,-0.0774 -0.055,-0.17125 -0.124,-0.20874 -2.2156,-1.21073 -3.9274,-1.21868 -6.3718,-0.40578 -2.3937,-0.96498 -4.0133,-0.67827 -6.3518,0.29446 -0.081,0.0338 -0.1464,0.13163 -0.1464,0.21821 v 8.17011 c 0,0.20232 0.1506,0.29632 0.3383,0.21426 2.1597,-1.06702 3.8758,-1.13215 6.1599,-0.20394 2.3161,-0.96336 3.871,-0.79582 6.1547,0.20189 0.1893,0.0832 0.3411,-0.0114 0.3411,-0.21559 0,-2.68829 0,-5.37658 0,-8.06488 z"></path><path fill="none" stroke="#586597" stroke-linecap="round" stroke-linejoin="round" d="M-1803.025-497.0979c0-.0774-.055-.17125-.124-.20874-2.2156-1.21073-3.9274-1.21868-6.3718-.40578-2.3937-.96498-4.0133-.67827-6.3518.29446-.081.0338-.1464.13163-.1464.21821v8.17011c0 .20232.1506.29632.3383.21426 2.1597-1.06702 3.8758-1.13215 6.1599-.20394 2.3161-.96336 3.871-.79582 6.1547.20189.1893.0832.3411-.0114.3411-.21559 0-2.68829 0-5.37658 0-8.06488zM-1809.5221-495.2912v-2"></path><path fill="#586597" d="m -1809.0221,-493.5412 c 0,0.2761 -0.2239,0.5 -0.5,0.5 -0.2762,0 -0.5,-0.2239 -0.5,-0.5 0,-0.2761 0.2238,-0.5 0.5,-0.5 0.2761,0 0.5,0.2239 0.5,0.5 z"></path><path fill="none" stroke="#586597" stroke-linecap="round" stroke-linejoin="round" d="M-1809.5221-489.2912v-2.5M-1819.5406-500.5446c-2.1448 1.8651-3.45 4.3267-3.4837 7.0092-.067 5.3651 4.9689 9.9263 11.7373 10.6249l-1.1738 5.8696 7.6297-6.4566c6.4074-1.8509 10.01-7.1453 8.4435-12.3676-1.5664-5.2222-7.8468-8.7034-14.6315-8.1099-1.6961.1484-3.2903.5397-4.7286 1.1271"></path><path fill="#586597" d="m -1818.2727,-501.88482 c 0,0.2761 0.2238,0.5 0.5,0.5 0.2761,0 0.5,-0.2239 0.5,-0.5 0,-0.2761 -0.2239,-0.5 -0.5,-0.5 -0.2762,0 -0.5,0.2239 -0.5,0.5 z"></path></g></svg>