<svg xmlns="http://www.w3.org/2000/svg" viewBox="0 0 24 24" id="event"><path fill="#303C42" d="M22 4c0-1.103-.897-2-2-2h-3V.5a.5.5 0 1 0-1 0V2H7V.5a.5.5 0 1 0-1 0V2H2C.897 2 0 2.897 0 4v16c0 1.103.897 2 2 2h14.5a.5.5 0 0 0 .354-.146l5-5a.484.484 0 0 0 .127-.354H22V4z"></path><path fill="#D32F2F" d="M2 3h4v1a1.001 1.001 0 0 0 0 2c.552 0 1-.449 1-1V3h9v1a1.001 1.001 0 0 0 0 2c.552 0 1-.449 1-1V3h3c.552 0 1 .449 1 1v3H1V4c0-.551.448-1 1-1z"></path><path fill="#FFF" d="M7 3h9v.5H7zM2 3.5h4V3H2c-.552 0-1 .449-1 1v.5c0-.551.448-1 1-1zM20 3h-3v.5h3c.552 0 1 .449 1 1V4c0-.551-.448-1-1-1z" opacity=".2"></path><path fill="#FFF" d="M16 18v3H2c-.552 0-1-.449-1-1V8h20v8h-3c-1.103 0-2 .897-2 2z"></path><path fill="#E6E6E6" d="M17 20.293V18c0-.551.448-1 1-1h2.293L17 20.293z"></path><linearGradient id="a" x1="6" x2="20" y1="3" y2="17" gradientUnits="userSpaceOnUse"><stop offset="0" stop-opacity=".1"></stop><stop offset="1" stop-opacity="0"></stop></linearGradient><path fill="url(#a)" d="M16 21v-3c0-1.103.897-2 2-2h3V8H1l13 13h2z"></path><path fill="#303C42" d="M9 11c-1.103 0-2 .897-2 2a.5.5 0 101 0 1 1 0 111 1 .5.5 0 100 1 1.001 1.001 0 11-1 1 .5.5 0 10-1 0c0 1.103.897 2 2 2s2-.897 2-2c0-.597-.263-1.133-.679-1.5.416-.367.679-.903.679-1.5 0-1.103-.897-2-2-2zM13.5 11h-.001l-.998.001a.5.5 0 000 1H13V17.5a.5.5 0 101 0v-6a.5.5 0 00-.5-.5zM23.853 22.146a2.934 2.934 0 01-.853-2.06V18c0-1.654-1.346-3-3-3s-3 1.346-3 3v2.086c0 .767-.311 1.518-.854 2.06A.5.5 0 0016.5 23H19c0 .551.449 1 1 1s1-.449 1-1h2.5a.5.5 0 00.353-.854z"></path><path fill="#FFCA28" d="M17.498 22A3.938 3.938 0 0 0 18 20.086V18c0-1.103.897-2 2-2s2 .897 2 2v2.086c0 .67.177 1.333.502 1.914h-5.004z"></path><path fill="#FFF" d="M18 18v2.086c0 .67-.177 1.333-.502 1.914H18.5a6.102 6.102 0 0 0 .3-1.914V18c0-1.103.539-2 1.2-2-1.103 0-2 .897-2 2z" opacity=".2"></path><path d="M22 20.086V18c0-1.103-.897-2-2-2 .661 0 1.199.897 1.199 2v2.086c0 .67.106 1.333.301 1.914h1.002A3.938 3.938 0 0 1 22 20.086z" opacity=".1"></path><linearGradient id="b" x1="-1.228" x2="25.783" y1="6.191" y2="18.787" gradientUnits="userSpaceOnUse"><stop offset="0" stop-color="#FFF" stop-opacity=".2"></stop><stop offset="1" stop-color="#FFF" stop-opacity="0"></stop></linearGradient><path fill="url(#b)" d="M23.853 22.146a2.934 2.934 0 0 1-.853-2.06V18c0-.883-.39-1.67-1-2.22V4c0-1.103-.897-2-2-2h-3V.5a.5.5 0 1 0-1 0V2H7V.5a.5.5 0 1 0-1 0V2H2C.897 2 0 2.897 0 4v16c0 1.103.897 2 2 2h14.266c-.041.048-.075.102-.12.146A.5.5 0 0 0 16.5 23H19c0 .551.449 1 1 1s1-.449 1-1h2.5a.5.5 0 0 0 .353-.854z"></path></svg>