<svg xmlns="http://www.w3.org/2000/svg" data-name="Layer 1" viewBox="0 0 24 24" id="wishlist"><rect width="15.5" height="19.5" x="1.25" y="1.25" fill="#6a3f00" rx="2.75" class="color00aa5b svgShape"></rect><path fill="#ffffff" d="M12.5 7.75h-5a.75.75 0 010-1.5h5a.75.75 0 010 1.5zM5.5 7.75a.75.75 0 01-.53-1.28.774.774 0 011.06 0 .748.748 0 010 1.06A.769.769 0 015.5 7.75zM12.5 11.75h-5a.75.75 0 010-1.5h5a.75.75 0 010 1.5zM5.5 11.75a.75.75 0 01-.53-1.28.774.774 0 011.06 0 .75.75 0 01-.53 1.28zM12.5 15.75h-5a.75.75 0 010-1.5h5a.75.75 0 010 1.5zM5.5 15.75a.75.75 0 01-.53-1.28.774.774 0 011.06 0 .75.75 0 01-.53 1.28z" class="colorffffff svgShape"></path><path fill="#fc9600" d="M21.681,13.271a3.7,3.7,0,0,0-5.08-.014,3.7,3.7,0,0,0-5.081.014,3.452,3.452,0,0,0,.007,5l4.56,4.272a.748.748,0,0,0,1.025,0l4.569-4.28a3.453,3.453,0,0,0,0-5Z" class="colorfcc400 svgShape"></path></svg>