<svg xmlns="http://www.w3.org/2000/svg" fill-rule="evenodd" stroke-linejoin="round" stroke-miterlimit="2" clip-rule="evenodd" viewBox="0 0 32 32" id="CashOnDelivery"><g transform="scale(.21157 .17778)" fill="#6a3f00" class="color000000 svgShape"><rect width="151.25" height="180" fill="none"></rect><clipPath id="a"><rect width="151.25" height="180" fill="#6a3f00" class="color000000 svgShape"></rect></clipPath><g clip-path="url(#a)" fill="#6a3f00" class="color000000 svgShape"><path d="M121,73C121,72.583 120.741,72.21 120.351,72.064L112.351,69.064C112.044,68.949 111.7,68.991 111.43,69.178C111.161,69.365 111,69.672 111,70L111,80C111,80.417 111.259,80.79 111.649,80.936L119.649,83.936C119.956,84.051 120.3,84.009 120.57,83.822C120.839,83.635 121,83.328 121,83L121,73ZM113,79.307L119,81.557L119,73.693L113,71.443L113,79.307Z" transform="matrix(4.72656 0 0 5.625 -458.477 -371.25)" fill="#6a3f00" class="color000000 svgShape"></path><path d="M120.351,72.064C120.741,72.21 121,72.583 121,73L121,83C121,83.328 120.839,83.635 120.57,83.822C120.3,84.009 119.956,84.051 119.649,83.936L111.649,80.936C111.259,80.79 111,80.417 111,80L111,70C111,69.672 111.161,69.365 111.43,69.178C111.7,68.991 112.044,68.949 112.351,69.064L120.351,72.064ZM119,73.693L119,81.557L113,79.307L113,71.443L119,73.693Z" transform="matrix(-4.72656 0 0 5.625 675.898 -371.25)" fill="#6a3f00" class="color000000 svgShape"></path><path d="M120.351,82.064C120.741,82.21 121,82.583 121,83C121,83.417 120.741,83.79 120.351,83.936L112.351,86.936C112.125,87.021 111.875,87.021 111.649,86.936L103.649,83.936C103.259,83.79 103,83.417 103,83C103,82.583 103.259,82.21 103.649,82.064L111.649,79.064C111.875,78.979 112.125,78.979 112.351,79.064L120.351,82.064ZM117.152,83L112,84.932L106.848,83L112,81.068L117.152,83Z" transform="matrix(-4.72656 0 0 5.625 638.086 -444.375)" fill="#6a3f00" class="color000000 svgShape"></path><path d="M71.417,1C71.417,0.347 70.782,-0.182 70,-0.182L53,-0.182C52.218,-0.182 51.583,0.347 51.583,1L51.583,14C51.583,14.653 52.218,15.182 53,15.182L70,15.182C70.782,15.182 71.417,14.653 71.417,14L71.417,1ZM54.417,2.182L54.417,12.818L68.583,12.818L68.583,2.182L54.417,2.182Z" transform="matrix(3.3364 0 0 4.75962 -172.102 90.865)" fill="#6a3f00" class="color000000 svgShape"></path><path d="M72.429,5.261C72.429,4.856 72.277,4.461 71.995,4.128L65.923,-3.022C65.469,-3.556 64.724,-3.875 63.929,-3.875L53,-3.875C51.659,-3.875 50.571,-2.986 50.571,-1.889L50.571,14C50.571,15.097 51.659,15.986 53,15.986L70,15.986C71.341,15.986 72.429,15.097 72.429,14L72.429,5.261ZM55.429,0.097L55.429,12.014L67.571,12.014L67.571,5.883L62.658,0.097L55.429,0.097Z" transform="matrix(1.94623 0 0 2.83217 -41.705 117.85)" fill="#6a3f00" class="color000000 svgShape"></path><path d="M72.5,14C71.12,14 70,15.12 70,16.5C70,17.88 71.12,19 72.5,19C73.88,19 75,17.88 75,16.5C75,15.12 73.88,14 72.5,14ZM72.5,16C72.776,16 73,16.224 73,16.5C73,16.776 72.776,17 72.5,17C72.224,17 72,16.776 72,16.5C72,16.224 72.224,16 72.5,16Z" transform="matrix(4.72656 0 0 5.625 -264.687 73.125)" fill="#6a3f00" class="color000000 svgShape"></path><path d="M72.5,14C71.12,14 70,15.12 70,16.5C70,17.88 71.12,19 72.5,19C73.88,19 75,17.88 75,16.5C75,15.12 73.88,14 72.5,14ZM72.5,16C72.776,16 73,16.224 73,16.5C73,16.776 72.776,17 72.5,17C72.224,17 72,16.776 72,16.5C72,16.224 72.224,16 72.5,16Z" transform="matrix(4.72656 0 0 5.625 -319.043 73.125)" fill="#6a3f00" class="color000000 svgShape"></path><path d="M74.5,7L68,7C67.448,7 67,7.448 67,8C67,8.552 67.448,9 68,9L74.5,9C75.052,9 75.5,8.552 75.5,8C75.5,7.448 75.052,7 74.5,7Z" transform="matrix(4.72656 0 0 5.625 -259.961 90)" fill="#6a3f00" class="color000000 svgShape"></path><path d="M16,8.5C15.172,8.5 14.5,7.828 14.5,7C14.5,6.172 15.172,5.5 16,5.5C16.828,5.5 17.5,6.172 17.5,7C17.5,7.828 18.172,8.5 19,8.5C19.828,8.5 20.5,7.828 20.5,7C20.5,4.516 18.484,2.5 16,2.5C13.516,2.5 11.5,4.516 11.5,7C11.5,9.484 13.516,11.5 16,11.5C16.828,11.5 17.5,10.828 17.5,10C17.5,9.172 16.828,8.5 16,8.5Z" transform="matrix(3.15104 0 0 3.75 -17.33 1.875)" fill="#6a3f00" class="color000000 svgShape"></path><path d="M16,8.5C15.172,8.5 14.5,7.828 14.5,7C14.5,6.172 15.172,5.5 16,5.5C16.828,5.5 17.5,6.172 17.5,7C17.5,7.828 18.172,8.5 19,8.5C19.828,8.5 20.5,7.828 20.5,7C20.5,4.516 18.484,2.5 16,2.5C13.516,2.5 11.5,4.516 11.5,7C11.5,9.484 13.516,11.5 16,11.5C16.828,11.5 17.5,10.828 17.5,10C17.5,9.172 16.828,8.5 16,8.5Z" transform="matrix(-3.15104 0 0 -3.75 83.503 76.875)" fill="#6a3f00" class="color000000 svgShape"></path><path d="M15,2.5L15,4C15,4.552 15.448,5 16,5C16.552,5 17,4.552 17,4L17,2.5C17,1.948 16.552,1.5 16,1.5C15.448,1.5 15,1.948 15,2.5Z" transform="matrix(4.72656 0 0 5.625 -42.54 -5.625)" fill="#6a3f00" class="color000000 svgShape"></path><path d="M15,2.5L15,4C15,4.552 15.448,5 16,5C16.552,5 17,4.552 17,4L17,2.5C17,1.948 16.552,1.5 16,1.5C15.448,1.5 15,1.948 15,2.5Z" transform="matrix(4.72656 0 0 5.625 -42.54 47.813)" fill="#6a3f00" class="color000000 svgShape"></path></g></g></svg>