
<svg xmlns="http://www.w3.org/2000/svg" viewBox="0 0 24 24" id="farm"><path fill="#BA7118" d="M22.975 11.341l-1.5-4.5-.121-.196-3.5-3.498-.183-.117-5.5-2a.5.5 0 0 0-.329-.004l-6.001 2-.22.148-3 3.5-.095.166-1.5 4.5-.025.16L1 22a1 1 0 0 0 1 1h1V11l1.33-3.248 2.539-2.96 5.11-1.704 4.696 1.708 3.015 3.013L21 11v12h1a1 1 0 0 0 1-1V11.498l-.025-.157z"></path><path fill="#D7944B" d="M21 23H3V11l1.33-3.248 2.538-2.96 5.11-1.704 4.697 1.708 3.014 3.013L21 11z"></path><path fill="#FFF" d="M1 11.75c0-.054.01-.107.026-.159l1.5-4.5a.504.504 0 0 1 .095-.168l3-3.499a.504.504 0 0 1 .221-.148l6-2a.497.497 0 0 1 .33.004l5.5 2a.5.5 0 0 1 .182.116l3.5 3.5a.499.499 0 0 1 .12.195l1.5 4.5a.513.513 0 0 1 .026.158v-.25a.513.513 0 0 0-.025-.158l-1.5-4.5a.499.499 0 0 0-.121-.196l-3.5-3.499a.5.5 0 0 0-.183-.116l-5.5-2a.497.497 0 0 0-.329-.004l-6 2a.504.504 0 0 0-.221.148l-3 3.499a.504.504 0 0 0-.095.168l-1.5 4.5a.513.513 0 0 0-.025.159L1 23V11.75z" opacity=".2"></path><path d="M19.69 7.81l-3.015-3.014-4.696-1.708-5.11 1.704-2.539 2.96L3 11v.25l1.33-3.248 2.538-2.96 5.11-1.704 4.697 1.708 3.014 3.013L21 11.25v-.25z" opacity=".1"></path><path fill="#D8C193" d="M18.5 12.5v10h-13v-10"></path><path fill="#BA7118" d="M5 12v11h14V12H5zm6.18 5.5L6 21.484v-7.969l5.18 3.985zM6.97 13h10.06L12 16.869l-5.03-3.87zM12 18.13L17.03 22H6.97L12 18.13zm.82-.63L18 13.515v7.97L12.82 17.5z"></path><path fill="#AB6116" d="M9.5 5h5v5h-5z"></path><path d="M9.5 5h5v.25h-5z" opacity=".1"></path><linearGradient id="a" x1="9.764" x2="13.722" y1="5.264" y2="9.222" gradientUnits="userSpaceOnUse"><stop offset="0" stop-opacity=".1"></stop><stop offset="1" stop-opacity="0"></stop></linearGradient><path fill="url(#a)" d="M9.5 5h5v5h-5z"></path><linearGradient id="b" x1="16.593" x2="21.739" y1="15.093" y2="20.239" gradientUnits="userSpaceOnUse"><stop offset="0" stop-opacity=".1"></stop><stop offset="1" stop-opacity="0"></stop></linearGradient><path fill="url(#b)" d="M19 12l2 2v9h-2"></path><path d="M22 22.75H2a1 1 0 0 1-1-1V22a1 1 0 0 0 1 1h20a1 1 0 0 0 1-1v-.25a1 1 0 0 1-1 1z" opacity=".1"></path><linearGradient id="c" x1="1.447" x2="24.154" y1="9.155" y2="19.744" gradientUnits="userSpaceOnUse"><stop offset="0" stop-color="#FFF" stop-opacity=".2"></stop><stop offset="1" stop-color="#FFF" stop-opacity="0"></stop></linearGradient><path fill="url(#c)" d="M22.975 11.341l-1.5-4.5-.121-.196-3.5-3.498-.183-.117-5.5-2a.5.5 0 0 0-.329-.004l-6.001 2-.22.148-3 3.5-.095.166-1.5 4.5-.025.16L1 22a1 1 0 0 0 1 1h1l19-.001a1 1 0 0 0 1-1V11.498l-.025-.157z"></path></svg>