<svg xmlns="http://www.w3.org/2000/svg" viewBox="0 0 130 137" id="Purchase"><defs></defs><g id="Layer_2" data-name="Layer 2" fill="#009a12" class="color000000 svgShape"><g id="Layer_1-2" data-name="Layer 1" fill="#009a12" class="color000000 svgShape"><path fill="#30f947" d="M122.14 60.3a53.52 53.52 0 1 1-2.81-17.21 53.76 53.76 0 0 1 2.81 17.21z" class="colorf93052 svgShape"></path><path fill="#24f13c" d="M119.32 43.08l-68.16 68.17a53.43 53.43 0 01-17.32-9.76c.22-.27.44-.52.69-.77l73.32-73.32a9.82 9.82 0 011.89-1.47 53.82 53.82 0 019.58 17.15zM98 15.41c-.18.21-.36.41-.57.61L24.1 89.34c-.2.2-.4.38-.61.57a53.34 53.34 0 01-7.87-19.23L78.75 7.54A53.34 53.34 0 0198 15.41z" class="colorf15a24 svgShape"></path><path fill="#1ced34" d="M129.31 62.5a65 65 0 0 1-128.62 0A66.08 66.08 0 0 0 0 72a65 65 0 0 0 130 0 66.08 66.08 0 0 0-.69-9.5z" class="colored1c24 svgShape"></path><path fill="#1ef737" d="M65 20a45 45 0 1 1-45 45 45.05 45.05 0 0 1 45-45m0-20a65 65 0 1 0 65 65A65 65 0 0 0 65 0z" class="colorf7931e svgShape"></path><path fill="#24f13c" d="M65.5 111c-25.27 0-47.76-9.89-62.11-25.26A65 65 0 0 0 126 87.37C111.64 101.81 89.86 111 65.5 111z" class="colorf15a24 svgShape"></path><path fill="#1ced34" d="M46 51.55l14 17.16a2.12 2.12 0 0 1 .2.29c.95 1.54.28 3.91-1.61 5.45s-4.35 1.72-5.66.48a2.12 2.12 0 0 1-.24-.25l-14-17.16c-1.24-1.52-.61-4.11 1.4-5.75a5.54 5.54 0 0 1 3.25-1.29A3.19 3.19 0 0 1 46 51.55z" class="colored1c24 svgShape"></path><path fill="#1ced34" d="M34.8 45.23l9.68 4.84a.53.53 0 01.14.1c.68.6.39 2.72-.7 4.9s-2.61 3.68-3.5 3.5a.53.53 0 01-.17-.05l-9.68-4.84c-.86-.43-.61-2.68.55-5a9.94 9.94 0 011.95-2.75c.68-.63 1.3-.93 1.73-.7zM60.23 70.13l3.32 10.31a.53.53 0 010 .17c0 .91-1.67 2.18-4 2.93s-4.46.71-4.95-.06a.53.53 0 01-.08-.15L51.24 73c-.29-.91 1.49-2.31 4-3.11a9.94 9.94 0 013.33-.53c.88.06 1.52.31 1.66.77z" class="colored1c24 svgShape"></path><path fill="#1ced34" d="M56.57 67.3L83 67.21h.42a4.79 4.79 0 010 9.39H83l-26.43.09A4.52 4.52 0 0152.32 72a5 5 0 011.24-3.34 4 4 0 013.01-1.36zM56.56 49.55l26.44-.1h.42c2.14.14 3.83 1.38 3.84 2.89s-1.68 2.76-3.82 2.91h-.42l-26.43.09c-2.34 0-4.27-1.3-4.27-2.9a2.55 2.55 0 011.25-2.06 5.36 5.36 0 012.99-.83zM60.7 57.87l17.62-.06h.28a2.92 2.92 0 010 5.8h-.28l-17.62.06a2.89 2.89 0 01-2.85-2.91 2.93 2.93 0 01.83-2.06 2.79 2.79 0 012.02-.83zM59 81.17l17.2-.06h.27c1.39.23 2.5 2.25 2.51 4.69s-1.08 4.46-2.47 4.7h-.27L59 90.62c-1.53 0-2.78-2.12-2.79-4.71a6.67 6.67 0 01.8-3.34 2.4 2.4 0 011.99-1.4z" class="colored1c24 svgShape"></path><path fill="#1ced34" d="M93.19 51.55l-14 17.16A2.12 2.12 0 0 0 79 69c-.95 1.54-.28 3.91 1.61 5.45s4.35 1.72 5.66.48a2.12 2.12 0 0 0 .24-.25l14-17.16c1.24-1.52.61-4.11-1.4-5.75a5.54 5.54 0 0 0-3.25-1.29 3.19 3.19 0 0 0-2.67 1.07z" class="colored1c24 svgShape"></path><circle cx="56.76" cy="85.85" r="7.21" fill="#1ced34" class="colored1c24 svgShape"></circle><circle cx="78.95" cy="85.85" r="7.21" fill="#1ced34" class="colored1c24 svgShape"></circle><path fill="#ffffff" d="M43.81 49.33l14 17.16a2.12 2.12 0 0 1 .2.29c.95 1.54.28 3.91-1.61 5.45s-4.4 1.77-5.67.49a2.12 2.12 0 0 1-.24-.25l-14-17.16c-1.24-1.52-.61-4.11 1.4-5.75a5.54 5.54 0 0 1 3.25-1.29 3.19 3.19 0 0 1 2.67 1.06z" class="colorffffff svgShape"></path><path fill="#ffffff" d="M58 67.91l3.32 10.31a.53.53 0 0 1 0 .17c0 .91-1.67 2.18-4 2.93s-4.46.71-4.95-.06a.53.53 0 0 1-.08-.15L49 70.81c-.29-.91 1.49-2.31 4-3.11a9.94 9.94 0 0 1 3.33-.53c.9.03 1.54.28 1.67.74z" class="colorffffff svgShape"></path><path fill="#ffffff" d="M54.35 65.08L80.78 65h.42a4.79 4.79 0 010 9.39h-.42l-26.43.09a4.52 4.52 0 01-4.28-4.71 5 5 0 011.24-3.34 4 4 0 013.04-1.35zM54.34 47.33l26.43-.09h.42c2.14.14 3.83 1.38 3.84 2.89s-1.67 2.76-3.81 2.87h-.42l-26.43.09c-2.34 0-4.27-1.3-4.27-2.9a2.55 2.55 0 011.25-2.06 5.36 5.36 0 012.99-.8zM58.48 55.65l17.62-.06h.28a2.92 2.92 0 010 5.8h-.28l-17.62.06a2.89 2.89 0 01-2.85-2.91 2.93 2.93 0 01.83-2.06 2.79 2.79 0 012.02-.83zM56.75 79l17.2-.06h.27c1.39.23 2.5 2.25 2.51 4.69s-1.08 4.46-2.47 4.7h-.27l-17.2.06c-1.53 0-2.78-2.12-2.79-4.71a6.67 6.67 0 01.8-3.34A2.4 2.4 0 0156.75 79z" class="colorffffff svgShape"></path><path fill="#ffffff" d="M91 49.33L77 66.49a2.12 2.12 0 0 0-.2.29c-.95 1.54-.28 3.91 1.61 5.45s4.35 1.72 5.66.48a2.12 2.12 0 0 0 .24-.25l14-17.16c1.24-1.52.61-4.11-1.4-5.75a5.54 5.54 0 0 0-3.25-1.29A3.19 3.19 0 0 0 91 49.33z" class="colorffffff svgShape"></path><circle cx="54.54" cy="83.63" r="7.21" fill="#ffffff" class="colorffffff svgShape"></circle><circle cx="76.73" cy="83.63" r="7.21" fill="#ffffff" class="colorffffff svgShape"></circle><rect width="16.57" height="9.76" x="28.06" y="45.28" fill="#ffffff" rx="4.88" ry="4.88" transform="rotate(28.72 36.34 50.173)" class="colorffffff svgShape"></rect></g></g></svg>