<svg xmlns="http://www.w3.org/2000/svg" viewBox="0 0 32 32" id="Love">
    <path d="M-735.728 1099.062c-1.886-1.09-3.98-1.496-5.93-1.042-1.949.453-3.73 1.774-4.998 3.97-1.33 2.304-.946 5.382.035 8.752.981 3.371 2.607 7.077 3.948 10.724.082.21.32.346.542.312 3.827-.661 7.848-1.116 11.26-1.942 3.414-.825 6.28-2.002 7.625-4.33 1.282-2.22 1.498-4.42.912-6.33-.586-1.91-1.956-3.51-3.84-4.599-1.939-1.119-4.283-.842-6.212-.303-.497-1.93-1.407-4.095-3.342-5.212z"
          color="#000" font-family="Sans" font-weight="400" overflow="visible" transform="rotate(-30 -2403.87 -841.402)"
          style="line-height:normal;-inkscape-font-specification:Sans;text-indent:0;text-align:start;text-decoration-line:none;text-transform:none;block-progression:tb;marker:none"
          fill="#dd0000" class="color000000 svgShape"></path>
</svg>