<svg xmlns="http://www.w3.org/2000/svg" width="591" height="151" fill="none" viewBox="0 0 591 151"><g clip-path="url(#clip0_22_14)"><path fill="#3D220C" d="M23.788 125.296C17.1772 125.296 11.8493 122.089 7.80395 115.676C3.85728 109.164 1.53862 100.383 0.847951 89.332C0.749284 87.7533 0.699951 85.4347 0.699951 82.376C0.699951 70.4373 2.67328 59.88 6.61995 50.704C10.5667 41.4293 16.1413 34.276 23.344 29.244C30.6453 24.1134 39.1306 21.548 48.7999 21.548C58.4692 21.548 66.9053 24.1134 74.108 29.244C81.4093 34.276 86.984 41.38 90.832 50.556C94.7787 59.732 96.752 70.3387 96.752 82.376C96.752 85.4347 96.7027 87.7533 96.604 89.332C95.9133 100.58 93.5947 109.361 89.648 115.676C85.7013 121.991 80.3733 125.148 73.664 125.148C68.2373 125.148 64.4387 123.668 62.268 120.708C60.196 117.748 59.16 114.147 59.16 109.904C59.16 107.931 59.3079 106.204 59.604 104.724C54.4733 104.921 49.9347 105.02 45.9879 105.02C43.5212 105.02 40.8079 104.921 37.8479 104.724C38.144 106.204 38.292 107.931 38.292 109.904C38.292 114.245 37.2066 117.896 35.0359 120.856C32.964 123.816 29.2147 125.296 23.788 125.296ZM36.812 78.38C42.1399 78.1827 46.0373 78.084 48.504 78.084C51.168 78.084 55.0653 78.1827 60.1959 78.38C60.3932 77.2947 60.492 75.6667 60.492 73.496C60.492 68.8587 59.5053 65.1093 57.532 62.248C55.5587 59.288 52.5 57.808 48.3559 57.808C44.3106 57.808 41.3013 59.2387 39.3279 62.1C37.3546 64.9613 36.368 68.6613 36.368 73.2C36.368 74.8773 36.5159 76.604 36.812 78.38ZM136.448 150.308C130.726 150.308 126.039 149.223 122.388 147.052C118.738 144.98 116.912 142.119 116.912 138.468C116.912 135.212 118.146 132.548 120.612 130.476C123.178 128.503 126.384 127.516 130.232 127.516C130.923 127.516 132.058 127.615 133.636 127.812C135.61 128.108 137.435 128.256 139.112 128.256C143.355 128.256 147.006 127.516 150.064 126.036C153.222 124.655 155.146 122.78 155.836 120.412C154.258 121.3 152.038 122.04 149.176 122.632C146.315 123.224 143.256 123.52 140 123.52C131.614 123.52 124.707 121.892 119.28 118.636C113.952 115.38 110.104 111.384 107.736 106.648C105.368 101.813 104.184 97.0773 104.184 92.44C104.184 84.744 105.862 78.084 109.216 72.46C112.67 66.836 117.11 62.544 122.536 59.584C127.963 56.624 133.636 55.144 139.556 55.144C141.53 55.144 143.799 55.292 146.364 55.588C149.028 55.884 151.248 56.2293 153.024 56.624C153.814 53.96 155.146 51.888 157.02 50.408C158.994 48.928 161.904 48.188 165.752 48.188C172.166 48.188 176.803 52.184 179.664 60.176C182.624 68.168 184.104 78.0347 184.104 89.776C184.104 95.3013 183.808 100.531 183.216 105.464C181.736 119.376 176.852 130.328 168.564 138.32C160.276 146.312 149.571 150.308 136.448 150.308ZM141.924 101.32C144.983 101.32 147.647 100.235 149.916 98.064C152.186 95.7947 153.32 93.1307 153.32 90.072C153.32 87.0133 152.186 84.3493 149.916 82.08C147.647 79.8107 144.983 78.676 141.924 78.676C138.866 78.676 136.202 79.8107 133.932 82.08C131.762 84.3493 130.676 87.0133 130.676 90.072C130.676 93.1307 131.762 95.7947 133.932 98.064C136.202 100.235 138.866 101.32 141.924 101.32ZM207.173 125C200.858 125 196.615 121.3 194.445 113.9C192.373 106.5 191.337 96.288 191.337 83.264C191.337 77.344 191.583 72.4107 192.077 68.464C192.669 64.4187 194.001 61.0147 196.073 58.252C198.243 55.3907 201.549 53.96 205.989 53.96C208.751 53.96 211.169 54.6013 213.241 55.884C215.411 57.1667 216.793 58.992 217.385 61.36C219.555 59.3867 222.367 57.9067 225.821 56.92C229.274 55.9333 232.974 55.44 236.921 55.44C240.078 55.44 243.285 56.2293 246.541 57.808C249.895 59.3867 252.658 61.5573 254.829 64.32C257.098 66.984 258.233 69.8947 258.233 73.052C258.233 76.2093 257.098 79.0213 254.829 81.488C252.658 83.856 249.747 85.04 246.097 85.04C244.913 85.04 243.778 84.892 242.693 84.596C241.706 84.3 240.818 84.004 240.029 83.708C238.055 82.9187 236.477 82.524 235.293 82.524C231.445 82.524 228.041 84.0533 225.081 87.112C222.219 90.072 220.789 93.92 220.789 98.656C220.789 103.885 220.591 108.227 220.197 111.68C219.802 115.133 218.618 118.241 216.645 121.004C214.671 123.668 211.514 125 207.173 125ZM278.461 125C274.416 125 271.407 123.865 269.433 121.596C267.559 119.228 266.276 115.725 265.585 111.088C264.993 106.352 264.697 99.6427 264.697 90.96C264.697 83.6587 265.043 77.8867 265.733 73.644C266.523 69.4013 267.904 66.244 269.877 64.172C271.851 62.1 274.712 61.064 278.461 61.064C282.507 61.064 285.467 62.248 287.341 64.616C289.315 66.8853 290.597 70.388 291.189 75.124C291.88 79.7613 292.225 86.4213 292.225 95.104C292.225 102.405 291.831 108.177 291.041 112.42C290.351 116.663 289.019 119.82 287.045 121.892C285.072 123.964 282.211 125 278.461 125ZM329.104 97.768C321.605 97.768 315.784 97.1267 311.64 95.844C307.496 94.4627 305.424 91.404 305.424 86.668C305.424 81.8333 307.595 78.7747 311.936 77.492C316.277 76.1107 322.296 75.42 329.992 75.42H336.8C343.904 75.42 349.479 76.16 353.524 77.64C357.668 79.0213 359.74 82.0307 359.74 86.668C359.74 91.2067 357.717 94.216 353.672 95.696C349.725 97.176 344.397 97.916 337.688 97.916L329.104 97.768ZM417.351 98.212C422.383 98.804 426.281 100.087 429.043 102.06C431.905 103.935 433.335 106.944 433.335 111.088C433.335 115.232 431.855 118.291 428.895 120.264C426.034 122.237 422.581 123.471 418.535 123.964C414.49 124.359 409.261 124.556 402.847 124.556C396.533 124.556 391.353 124.359 387.307 123.964C383.262 123.471 379.809 122.237 376.947 120.264C374.086 118.291 372.655 115.232 372.655 111.088C372.655 107.043 373.987 104.083 376.651 102.208C379.414 100.235 383.163 98.9027 387.899 98.212C387.406 92.4893 387.159 84.3 387.159 73.644C387.159 64.0733 387.357 56.3773 387.751 50.556C382.029 49.964 377.539 48.5827 374.283 46.412C371.027 44.2413 369.399 40.8373 369.399 36.2C369.399 31.6613 370.978 28.3067 374.135 26.136C377.293 23.9654 381.091 22.6334 385.531 22.14C389.971 21.6467 395.694 21.4 402.699 21.4C409.705 21.4 415.427 21.6467 419.867 22.14C424.307 22.6334 428.106 23.9654 431.263 26.136C434.519 28.3067 436.147 31.6613 436.147 36.2C436.147 40.8373 434.47 44.2413 431.115 46.412C427.859 48.5827 423.321 49.964 417.499 50.556C417.993 55.9827 418.239 63.6787 418.239 73.644C418.239 83.2147 417.943 91.404 417.351 98.212ZM496.078 125C492.526 125 489.862 124.013 488.086 122.04C486.409 120.067 485.373 117.649 484.978 114.788C484.583 111.927 484.386 108.227 484.386 103.688C484.386 97.8667 483.597 93.3773 482.018 90.22C480.439 87.0627 477.874 85.484 474.322 85.484C471.066 85.484 468.599 87.0627 466.922 90.22C465.343 93.2787 464.554 97.5213 464.554 102.948C464.554 108.177 464.406 112.124 464.11 114.788C463.814 117.452 462.827 119.82 461.15 121.892C459.473 123.865 456.71 124.852 452.862 124.852C447.238 124.852 443.291 121.251 441.022 114.048C438.753 106.747 437.618 98.212 437.618 88.444C437.618 64.764 442.601 52.924 452.566 52.924C455.329 52.924 457.598 53.6147 459.374 54.996C461.15 56.2787 462.383 58.1533 463.074 60.62C464.357 59.2387 466.33 58.0053 468.994 56.92C471.757 55.8347 474.667 55.292 477.726 55.292C488.579 55.292 496.67 59.2387 501.998 67.132C507.425 75.0253 510.138 85.7307 510.138 99.248C510.138 107.24 509.102 113.555 507.03 118.192C504.958 122.731 501.307 125 496.078 125ZM576.004 125C572.452 125 569.788 124.013 568.012 122.04C566.334 120.067 565.298 117.649 564.904 114.788C564.509 111.927 564.312 108.227 564.312 103.688C564.312 97.8667 563.522 93.3773 561.944 90.22C560.365 87.0627 557.8 85.484 554.248 85.484C550.992 85.484 548.525 87.0627 546.848 90.22C545.269 93.2787 544.48 97.5213 544.48 102.948C544.48 108.177 544.332 112.124 544.036 114.788C543.74 117.452 542.753 119.82 541.076 121.892C539.398 123.865 536.636 124.852 532.788 124.852C527.164 124.852 523.217 121.251 520.948 114.048C518.678 106.747 517.544 98.212 517.544 88.444C517.544 64.764 522.526 52.924 532.492 52.924C535.254 52.924 537.524 53.6147 539.3 54.996C541.076 56.2787 542.309 58.1533 543 60.62C544.282 59.2387 546.256 58.0053 548.92 56.92C551.682 55.8347 554.593 55.292 557.652 55.292C568.505 55.292 576.596 59.2387 581.924 67.132C587.35 75.0253 590.064 85.7307 590.064 99.248C590.064 107.24 589.028 113.555 586.956 118.192C584.884 122.731 581.233 125 576.004 125Z"/></g><path fill="#D78100" d="M268.988 9.33752C268.575 9.5203 268.251 9.8596 268.087 10.2809C267.924 10.7023 267.934 11.1712 268.116 11.5849L270.113 16.2971C270.198 16.5065 270.324 16.6969 270.484 16.8571C270.643 17.0174 270.833 17.1444 271.042 17.2307C271.251 17.317 271.475 17.3609 271.701 17.3599C271.927 17.3588 272.151 17.3129 272.359 17.2247C272.567 17.1365 272.756 17.0078 272.914 16.8461C273.072 16.6844 273.196 16.4929 273.279 16.2827C273.362 16.0726 273.403 15.848 273.399 15.6219C273.395 15.3959 273.346 15.1729 273.255 14.966L271.258 10.2538C271.172 10.0424 271.044 9.85051 270.882 9.68939C270.721 9.52826 270.528 9.40122 270.317 9.31578C270.105 9.23033 269.878 9.18824 269.65 9.19197C269.422 9.19571 269.197 9.2452 268.988 9.33752ZM257.094 21.4405C256.782 21.5735 256.517 21.7964 256.333 22.0808C256.148 22.3652 256.052 22.6981 256.058 23.0372C256.063 23.3762 256.169 23.706 256.363 23.9843C256.557 24.2626 256.829 24.477 257.145 24.5999L261.888 26.52C262.097 26.6094 262.321 26.6563 262.548 26.6579C262.775 26.6596 263 26.6159 263.21 26.5295C263.42 26.4431 263.61 26.3156 263.77 26.1547C263.93 25.9937 264.057 25.8024 264.142 25.592C264.227 25.3816 264.269 25.1564 264.266 24.9294C264.263 24.7025 264.215 24.4784 264.124 24.2703C264.034 24.0623 263.902 23.8744 263.738 23.7177C263.574 23.561 263.38 23.4386 263.168 23.3577L258.425 21.4377C258.214 21.349 257.988 21.3036 257.759 21.3041C257.531 21.3046 257.305 21.351 257.094 21.4405ZM285.956 9.21144C285.553 9.3965 285.238 9.73116 285.078 10.1445L283.158 14.8879C283.069 15.0965 283.022 15.3208 283.02 15.5478C283.018 15.7747 283.062 15.9997 283.149 16.2096C283.235 16.4195 283.362 16.61 283.523 16.77C283.684 16.93 283.876 17.0563 284.086 17.1415C284.296 17.2266 284.522 17.2689 284.749 17.266C284.975 17.263 285.2 17.2147 285.408 17.1241C285.616 17.0334 285.804 16.9021 285.96 16.7379C286.117 16.5738 286.239 16.38 286.32 16.1679L288.24 11.4245C288.374 11.1077 288.408 10.758 288.34 10.4212C288.271 10.0843 288.102 9.77606 287.855 9.53683C287.608 9.29759 287.295 9.13852 286.956 9.08046C286.617 9.02239 286.269 9.06805 285.956 9.21144ZM273.68 20.3438C270.764 21.5794 268.459 23.9228 267.27 26.8584C266.082 29.7941 266.109 33.0816 267.344 35.9977C268.58 38.9138 270.923 41.2197 273.859 42.408C276.794 43.5963 280.082 43.5698 282.998 42.3342C285.914 41.0987 288.103 38.7553 289.291 35.8196C290.48 32.8839 290.57 29.5964 289.334 26.6803C288.099 23.7642 285.755 21.4584 282.82 20.27C279.884 19.0817 276.596 19.1082 273.68 20.3438ZM257.254 38.4202C257.045 38.5054 256.855 38.6314 256.694 38.7909C256.534 38.9503 256.407 39.14 256.321 39.349C256.234 39.558 256.191 39.782 256.192 40.0081C256.193 40.2341 256.239 40.4577 256.327 40.6659C256.415 40.8741 256.544 41.0626 256.705 41.2206C256.867 41.3786 257.059 41.5029 257.269 41.5862C257.479 41.6696 257.703 41.7103 257.929 41.7061C258.156 41.7019 258.378 41.6528 258.585 41.5616L263.298 39.5651C263.507 39.4798 263.697 39.3538 263.858 39.1943C264.018 39.0349 264.145 38.8452 264.231 38.6362C264.317 38.4273 264.361 38.2032 264.36 37.9772C264.359 37.7511 264.313 37.5275 264.225 37.3193C264.137 37.1111 264.008 36.9226 263.846 36.7646C263.685 36.6066 263.493 36.4823 263.283 36.399C263.073 36.3156 262.848 36.2749 262.622 36.2791C262.396 36.2833 262.173 36.3324 261.966 36.4236L257.254 38.4202ZM293.381 23.113C293.171 23.1982 292.981 23.3243 292.821 23.4837C292.661 23.6432 292.534 23.8329 292.447 24.0418C292.361 24.2508 292.317 24.4748 292.318 24.7009C292.319 24.927 292.365 25.1506 292.453 25.3587C292.541 25.5669 292.67 25.7555 292.832 25.9135C292.994 26.0715 293.185 26.1957 293.395 26.2791C293.605 26.3624 293.83 26.4032 294.056 26.3989C294.282 26.3947 294.505 26.3456 294.712 26.2545L299.424 24.2579C299.633 24.1727 299.824 24.0466 299.984 23.8872C300.144 23.7277 300.271 23.538 300.358 23.3291C300.444 23.1201 300.488 22.8961 300.487 22.67C300.486 22.4439 300.44 22.2203 300.352 22.0121C300.263 21.804 300.135 21.6154 299.973 21.4574C299.811 21.2994 299.62 21.1752 299.41 21.0918C299.2 21.0085 298.975 20.9677 298.749 20.9719C298.523 20.9762 298.3 21.0253 298.093 21.1164L293.381 23.113ZM271.237 45.5771C270.834 45.7622 270.519 46.0968 270.358 46.5102L268.438 51.2535C268.349 51.4621 268.302 51.6865 268.3 51.9134C268.299 52.1404 268.342 52.3654 268.429 52.5753C268.515 52.7851 268.643 52.9757 268.804 53.1357C268.965 53.2957 269.156 53.422 269.366 53.5071C269.577 53.5923 269.802 53.6346 270.029 53.6316C270.256 53.6286 270.48 53.5804 270.688 53.4897C270.896 53.3991 271.084 53.2678 271.24 53.1036C271.397 52.9394 271.52 52.7456 271.6 52.5335L273.52 47.7902C273.654 47.4734 273.689 47.1237 273.62 46.7868C273.551 46.45 273.382 46.1417 273.135 45.9025C272.889 45.6632 272.575 45.5042 272.236 45.4461C271.897 45.388 271.549 45.4337 271.237 45.5771ZM293.463 36.1596C293.15 36.2921 292.885 36.5147 292.699 36.7991C292.514 37.0834 292.418 37.4166 292.423 37.7559C292.428 38.0952 292.534 38.4253 292.728 38.704C292.922 38.9827 293.194 39.1972 293.51 39.3203L298.254 41.2404C298.462 41.3298 298.687 41.3767 298.913 41.3783C299.14 41.3799 299.365 41.3362 299.575 41.2498C299.785 41.1634 299.976 41.036 300.136 40.875C300.296 40.7141 300.422 40.5228 300.507 40.3124C300.592 40.102 300.635 39.8768 300.632 39.6498C300.629 39.4229 300.58 39.1988 300.49 38.9907C300.399 38.7827 300.268 38.5948 300.104 38.4381C299.939 38.2814 299.746 38.159 299.534 38.0781L294.79 36.1581C294.58 36.0696 294.354 36.0242 294.126 36.0245C293.898 36.0247 293.673 36.0707 293.463 36.1596ZM284.295 45.4647C283.882 45.6474 283.558 45.9867 283.395 46.4081C283.231 46.8294 283.242 47.2984 283.424 47.712L285.42 52.4242C285.506 52.6336 285.632 52.824 285.791 52.9843C285.951 53.1445 286.14 53.2715 286.349 53.3578C286.558 53.4441 286.782 53.488 287.008 53.487C287.234 53.486 287.458 53.44 287.666 53.3518C287.874 53.2636 288.063 53.1349 288.221 52.9732C288.379 52.8115 288.503 52.62 288.587 52.4099C288.67 52.1997 288.711 51.9751 288.706 51.7491C288.702 51.523 288.653 51.3001 288.562 51.0932L286.565 46.381C286.479 46.1696 286.351 45.9777 286.19 45.8165C286.028 45.6554 285.836 45.5284 285.624 45.4429C285.412 45.3575 285.186 45.3154 284.958 45.3191C284.729 45.3228 284.504 45.3723 284.295 45.4647Z"/><defs><clipPath id="clip0_22_14"><rect width="591" height="134" fill="#fff" transform="translate(0 17)"/></clipPath></defs></svg>