<svg xmlns="http://www.w3.org/2000/svg" enable-background="new 0 0 512 512" viewBox="0 0 512 512" id="saved"><path fill="#e0e6e9" d="M496,96.28v319.44c0,44.34-35.94,80.28-80.28,80.28H96.28C51.94,496,16,460.06,16,415.72V96.28
				C16,51.94,51.94,16,96.28,16h319.44C460.06,16,496,51.94,496,96.28z"></path><path fill="#028f5c" d="M376,126.62V151l-120,39.6L136,151v-24.38C136,98.66,158.66,76,186.62,76h138.76
				C353.34,76,376,98.66,376,126.62z"></path><polygon fill="#03e48c" points="256 151 275.2 256 256 376 136 436 136 151"></polygon><polygon fill="#08c07a" points="376 151 376 436 256 376 256 151"></polygon><path fill="#c2ced4" d="M415.719,511H96.281C43.743,511,1,468.257,1,415.719V96.281C1,43.743,43.743,1,96.281,1h319.438
				C468.257,1,511,43.743,511,96.281v319.438C511,468.257,468.257,511,415.719,511z M96.281,31C60.285,31,31,60.285,31,96.281
				v319.438C31,451.715,60.285,481,96.281,481h319.438C451.715,481,481,451.715,481,415.719V96.281
				C481,60.285,451.715,31,415.719,31H96.281z"></path></svg>