<svg xmlns="http://www.w3.org/2000/svg" width="50" height="50" viewBox="0 0 255.99 255.99"><g fill="#3E210C" fill-rule="nonzero" stroke="none" stroke-dashoffset="0" stroke-linecap="butt" stroke-linejoin="miter" stroke-miterlimit="10" stroke-width="1" font-family="none" font-size="none" style="mix-blend-mode:normal"><g><path d="M12,3c-4.95703,0 -9,4.04297 -9,9c0,4.95703 4.04297,9 9,9c4.95703,0 9,-4.04297 9,-9c0,-4.95703 -4.04297,-9 -9,-9zM31,4c-0.55078,0 -1,0.44922 -1,1v14c0,0.55078 0.44922,1 1,1h14c0.55078,0 1,-0.44922 1,-1v-14c0,-0.55078 -0.44922,-1 -1,-1zM33.05859,28c-0.44141,0 -0.82812,0.28516 -0.96094,0.70313l-3.05078,9.89063c-0.125,0.39844 0.01172,0.83594 0.34375,1.08984l8,6.11328c0.35938,0.27344 0.85938,0.27344 1.21875,0l8,-6.11328c0.33203,-0.25391 0.46875,-0.69141 0.34375,-1.08984l-3.05078,-9.89062c-0.13281,-0.41797 -0.51953,-0.70312 -0.96094,-0.70312zM11.95313,29c-0.34375,0.01953 -0.65234,0.20703 -0.82422,0.50391l-7.99609,14c-0.17969,0.30859 -0.17578,0.69141 0,1c0.17969,0.30859 0.51172,0.49609 0.86719,0.49609h16c0.35547,0 0.6875,-0.1875 0.86719,-0.49609c0.17578,-0.30859 0.17969,-0.69141 0.00391,-1l-8,-14c-0.1875,-0.32812 -0.54297,-0.51953 -0.91797,-0.50391z" transform="scale(5.12,5.12)"/></g></g></svg>