<svg xmlns="http://www.w3.org/2000/svg" fill-rule="evenodd" stroke-linejoin="round" stroke-miterlimit="2"
     clip-rule="evenodd" viewBox="0 0 64 64" id="sendmessage">
    <g transform="translate(-1768 -248)" fill="#6a3f00" class="color000000 svgShape">
        <g transform="matrix(.99152 0 0 .97786 1680.78 84.042)" fill="#6a3f00" class="color000000 svgShape">
            <path d="M89.983,196C89.983,197.007 90.706,197.864 91.687,198.021L104.12,200C104.12,200 91.687,201.979 91.687,201.979C90.706,202.136 89.983,202.993 89.983,204L89.983,224.239C89.983,226.336 91.064,228.286 92.847,229.388C94.615,230.481 96.822,230.581 98.681,229.651C109.963,224.01 134.864,211.56 147.16,205.412C149.208,204.388 150.496,202.29 150.496,200C150.496,197.71 149.208,195.612 147.16,194.588C134.864,188.44 109.963,175.99 98.681,170.349C96.822,169.419 94.615,169.519 92.847,170.612C91.064,171.714 89.983,173.664 89.983,175.761L89.983,196Z"
                  fill="#6a3f00" class="color000000 svgShape"></path>
        </g>
    </g>
</svg>