<svg xmlns="http://www.w3.org/2000/svg" id="Add" viewBox="0 0 48 48"><g fill="#000" class="color000000 svgShape"><g fill="#000" class="color000000 svgShape"><path d="m 1988.6719,1279.8894 c -0.8446,-0.026 -1.6882,0.019 -2.5235,0.1309 -3.3409,0.4459 -6.5372,1.9791 -9.0214,4.5254 -4.9686,5.0926 -5.818,12.9314 -2.0567,18.9707 3.5277,5.6642 10.2644,8.3846 16.666,6.875 -0.2668,1.1366 -0.4218,2.316 -0.4218,3.5332 0,8.5295 6.9314,15.459 15.4609,15.459 8.5295,0 15.459,-6.9295 15.459,-15.459 0,-8.5295 -6.9295,-15.4609 -15.459,-15.4609 -1.2223,0 -2.4059,0.1568 -3.5469,0.4257 1.5475,-6.5523 -1.3255,-13.4139 -7.1875,-16.8671 -2.2988,-1.3543 -4.8354,-2.0557 -7.3691,-2.1329 z" style="line-height:normal;text-indent:0;text-align:start;text-decoration-line:none;text-decoration-style:solid;text-decoration-color:#000;text-transform:none;block-progression:tb;white-space:normal;isolation:auto;mix-blend-mode:normal;solid-color:#000;solid-opacity:1" fill="#6a3f00" class="color3b3c3d svgShape" color="#000" transform="translate(0 -1004.362) matrix(.9697 0 0 .96967 -1912.96 -236.701)"/><path d="m 1988.625,1281.3875 c 2.287,0.07 4.5761,0.7034 6.6543,1.9277 5.5419,3.2647 8.1346,9.8806 6.2852,16.041 a 0.750075,0.750075 0 0 0 -0.01,0.031 c -4.3247,1.5572 -7.7504,4.9814 -9.3106,9.3047 -6.033,1.8318 -12.5538,-0.5953 -15.9003,-5.9688 -3.4004,-5.4598 -2.6343,-12.5251 1.8574,-17.1289 2.8073,-2.8774 6.6122,-4.324 10.4238,-4.207 z" style="line-height:normal;text-indent:0;text-align:start;text-decoration-line:none;text-decoration-style:solid;text-decoration-color:#000;text-transform:none;block-progression:tb;white-space:normal;isolation:auto;mix-blend-mode:normal;solid-color:#000;solid-opacity:1" fill="#f2ae4a" class="colorf29f4a svgShape" color="#000" transform="translate(0 -1004.362) matrix(.9697 0 0 .96967 -1912.96 -236.701)"/><path d="m 1981.1309,1295.6738 0,6.3125 a 0.74992758,0.74992758 0 0 0 0.016,0.1485 0.74992758,0.74992758 0 0 0 0.018,0.072 0.74992758,0.74992758 0 0 0 0.025,0.07 0.74992758,0.74992758 0 0 0 0.033,0.068 0.74992758,0.74992758 0 0 0 0.039,0.064 0.74992758,0.74992758 0 0 0 0.045,0.059 0.74992758,0.74992758 0 0 0 0.053,0.055 0.74992758,0.74992758 0 0 0 0.055,0.051 0.74992758,0.74992758 0 0 0 0.062,0.043 0.74992758,0.74992758 0 0 0 0.064,0.037 0.74992758,0.74992758 0 0 0 0.068,0.031 0.74992758,0.74992758 0 0 0 0.2187,0.049 0.74992758,0.74992758 0 0 0 0.053,0 l 12.625,0 a 0.74992758,0.74992758 0 0 0 0.1484,-0.016 0.74992758,0.74992758 0 0 0 0.074,-0.018 0.74992758,0.74992758 0 0 0 0.07,-0.027 0.74992758,0.74992758 0 0 0 0.066,-0.031 0.74992758,0.74992758 0 0 0 0.125,-0.086 0.74992758,0.74992758 0 0 0 0.055,-0.051 0.74992758,0.74992758 0 0 0 0.049,-0.057 0.74992758,0.74992758 0 0 0 0.043,-0.061 0.74992758,0.74992758 0 0 0 0.068,-0.1328 0.74992758,0.74992758 0 0 0 0.023,-0.072 0.74992758,0.74992758 0 0 0 0.025,-0.1464 0.74992758,0.74992758 0 0 0 0,-0.053 l 0,-6.3125 -1.5,0 0,5.5625 -11.125,0 0,-5.5625 -1.5,0 z" style="line-height:normal;text-indent:0;text-align:start;text-decoration-line:none;text-decoration-style:solid;text-decoration-color:#000;text-transform:none;block-progression:tb;white-space:normal;isolation:auto;mix-blend-mode:normal;solid-color:#000;solid-opacity:1" fill="#6a3f00" class="color3b3c3d svgShape" color="#000" transform="translate(0 -1004.362) matrix(.9697 0 0 .96967 -1912.96 -236.701)"/><path d="m 1988.1934,1287.9473 c -2.1485,0 -3.9063,1.7578 -3.9063,3.9062 0,2.1485 1.7578,3.9063 3.9063,3.9063 2.1484,0 3.9062,-1.7578 3.9062,-3.9063 0,-2.1484 -1.7578,-3.9062 -3.9062,-3.9062 z" style="line-height:normal;text-indent:0;text-align:start;text-decoration-line:none;text-decoration-style:solid;text-decoration-color:#000;text-transform:none;block-progression:tb;white-space:normal;isolation:auto;mix-blend-mode:normal;solid-color:#000;solid-opacity:1" fill="#6a3f00" class="color3b3c3d svgShape" color="#000" transform="translate(0 -1004.362) matrix(.9697 0 0 .96967 -1912.96 -236.701)"/><path d="M1988.1934 1289.4473c1.3379 0 2.4062 1.0683 2.4062 2.4062 0 1.338-1.0683 2.4063-2.4062 2.4063-1.338 0-2.4063-1.0683-2.4063-2.4063 0-1.3379 1.0683-2.4062 2.4063-2.4062zM2006.7754 1299.9629c7.7188 0 13.959 6.2421 13.959 13.9609 0 7.7189-6.2402 13.959-13.959 13.959-7.7189 0-13.9609-6.2401-13.9609-13.959 0-7.7188 6.242-13.9609 13.9609-13.9609z" style="line-height:normal;text-indent:0;text-align:start;text-decoration-line:none;text-decoration-style:solid;text-decoration-color:#000;text-transform:none;block-progression:tb;white-space:normal;isolation:auto;mix-blend-mode:normal;solid-color:#000;solid-opacity:1" fill="#efc281" class="color81d4ef svgShape" color="#000" transform="translate(0 -1004.362) matrix(.9697 0 0 .96967 -1912.96 -236.701)"/><g fill="#000" class="color000000 svgShape"><path fill="none" stroke="#3d3c3b" stroke-width="1.547" d="M2006.4833 1584.7828l0 18.0005M2015.4836 1594.0731l-18.0006 0" class="colorStroke3b3c3d svgStroke" transform="translate(0 -1004.362) matrix(.9697 0 0 .96967 -1912.96 -236.701) translate(.291 -279.86)"/></g></g></g></svg>