<svg width="559" height="104" viewBox="0 0 559 104" fill="none" xmlns="http://www.w3.org/2000/svg">
<mask id="mask0_2_66" style="mask-type:luminance" maskUnits="userSpaceOnUse" x="48" y="0" width="45" height="104">
<path d="M92.19 25.18L48.11 0V103.24L65.72 93.01V63.96L79.02 71.66L78.95 51.8L65.72 44.24V32.7L92.25 48.03L92.19 25.18Z" fill="white"/>
</mask>
<g mask="url(#mask0_2_66)">
<path d="M104.25 -0.380005H-4.00999V103.37H104.25V-0.380005Z" fill="url(#paint0_linear_2_66)"/>
</g>
<mask id="mask1_2_66" style="mask-type:luminance" maskUnits="userSpaceOnUse" x="0" y="0" width="45" height="104">
<path d="M0.0600014 25.18L44.15 0V103.24L26.54 93.01V32.7L0 48.03L0.0600014 25.18Z" fill="white"/>
</mask>
<g mask="url(#mask1_2_66)">
<path d="M103.52 -0.380005H-4.74001V103.37H103.52V-0.380005Z" fill="url(#paint1_linear_2_66)"/>
</g>
<path d="M172.16 31.99H152.44V86.38H141.53V31.99H121.98V23.13H172.16V31.99Z" fill="#425066"/>
<path d="M185.25 87.25C178.583 87.25 173.16 85.1433 168.98 80.93C164.8 76.7167 162.717 71.1066 162.73 64.1V62.79C162.657 58.4432 163.587 54.1382 165.45 50.21C167.124 46.6743 169.766 43.6855 173.07 41.59C176.363 39.5243 180.183 38.4546 184.07 38.51C190.47 38.51 195.417 40.55 198.91 44.63C202.403 48.71 204.15 54.49 204.15 61.97V66.22H173.39C173.514 69.6631 174.898 72.9408 177.28 75.43C178.404 76.549 179.745 77.4267 181.22 78.0096C182.696 78.5925 184.274 78.8683 185.86 78.82C188.164 78.8722 190.447 78.3665 192.514 77.3462C194.581 76.3259 196.37 74.8211 197.73 72.96L203.42 78.39C201.531 81.2004 198.929 83.4576 195.88 84.93C192.566 86.521 188.926 87.3155 185.25 87.25ZM183.99 46.98C182.674 46.9296 181.363 47.1726 180.152 47.6915C178.941 48.2103 177.861 48.9921 176.99 49.98C175.042 52.405 173.856 55.352 173.58 58.45H193.73V57.74C193.5 54.21 192.56 51.53 190.9 49.74C190.02 48.8031 188.945 48.0706 187.751 47.5937C186.557 47.1169 185.273 46.9074 183.99 46.98Z" fill="#425066"/>
<path d="M222.09 39.37L222.4 44.81C224.037 42.7725 226.125 41.143 228.498 40.0497C230.872 38.9565 233.468 38.4294 236.08 38.51C245.867 38.51 250.85 44.1133 251.03 55.32V86.38H240.47V55.93C240.47 52.93 239.83 50.74 238.54 49.3C237.25 47.86 235.14 47.15 232.22 47.15C230.243 47.0857 228.291 47.598 226.6 48.6243C224.91 49.6506 223.555 51.1467 222.7 52.93V86.38H212.14V39.38L222.09 39.37Z" fill="#425066"/>
<path d="M285.28 73.61C285.316 72.7509 285.119 71.898 284.711 71.1412C284.303 70.3844 283.698 69.7518 282.96 69.31C280.552 68.0206 277.946 67.1387 275.25 66.7C272.146 66.1059 269.125 65.1424 266.25 63.83C260.983 61.29 258.35 57.6 258.35 52.76C258.339 50.7808 258.797 48.8272 259.687 47.0593C260.577 45.2915 261.873 43.7598 263.47 42.59C266.89 39.87 271.223 38.51 276.47 38.51C282.09 38.51 286.63 39.9 290.09 42.68C291.746 43.9453 293.079 45.5841 293.981 47.4627C294.883 49.3414 295.328 51.4066 295.28 53.49H284.73C284.749 52.5323 284.556 51.5822 284.165 50.7075C283.775 49.8329 283.196 49.0552 282.47 48.43C280.793 47.0316 278.65 46.3174 276.47 46.43C274.456 46.3421 272.467 46.9067 270.8 48.04C270.105 48.5179 269.54 49.1611 269.156 49.9118C268.772 50.6625 268.581 51.497 268.6 52.34C268.572 53.0903 268.742 53.8348 269.093 54.4984C269.444 55.1621 269.964 55.7214 270.6 56.12C271.96 57.02 274.71 57.92 278.85 58.84C282.23 59.4917 285.508 60.5879 288.6 62.1C290.713 63.1388 292.524 64.7019 293.86 66.64C295.054 68.5674 295.652 70.8041 295.58 73.07C295.615 75.0824 295.154 77.0723 294.236 78.8637C293.319 80.6551 291.974 82.1926 290.32 83.34C286.82 85.96 282.22 87.27 276.55 87.27C273.006 87.3352 269.491 86.6253 266.25 85.19C263.439 83.948 261.019 81.9636 259.25 79.45C257.614 77.1555 256.733 74.4082 256.73 71.59H266.99C266.999 72.6986 267.257 73.791 267.745 74.7864C268.233 75.7817 268.939 76.6545 269.81 77.34C271.824 78.7623 274.258 79.4666 276.72 79.34C279.5 79.34 281.613 78.81 283.06 77.75C283.746 77.3004 284.309 76.6859 284.697 75.9627C285.085 75.2395 285.285 74.4306 285.28 73.61Z" fill="#425066"/>
<path d="M301.1 62.44C301.032 58.1365 301.97 53.8766 303.84 50C305.516 46.4697 308.189 43.5077 311.53 41.48C314.974 39.4498 318.913 38.4116 322.91 38.48C329.25 38.48 334.4 40.52 338.36 44.6C342.32 48.68 344.453 54.0967 344.76 60.85L344.81 63.33C344.882 67.6165 343.968 71.8623 342.14 75.74C340.48 79.2553 337.819 82.202 334.49 84.21C331.011 86.2525 327.034 87.2909 323 87.21C316.333 87.21 311.023 85.0033 307.07 80.59C303.117 76.1767 301.117 70.29 301.07 62.93L301.1 62.44ZM311.66 63.36C311.66 68.1867 312.66 71.9733 314.66 74.72C315.641 76.0006 316.905 77.0369 318.353 77.748C319.801 78.459 321.394 78.8255 323.007 78.8187C324.621 78.8119 326.21 78.4321 327.652 77.7089C329.094 76.9857 330.35 75.9388 331.32 74.65C333.32 71.87 334.32 67.8 334.32 62.44C334.32 57.6933 333.3 53.93 331.26 51.15C330.303 49.8626 329.06 48.8156 327.628 48.0921C326.197 47.3686 324.616 46.9884 323.013 46.9816C321.409 46.9748 319.825 47.3416 318.387 48.053C316.95 48.7643 315.698 49.8007 314.73 51.08C312.677 53.82 311.653 57.9133 311.66 63.36Z" fill="#425066"/>
<path d="M376.57 49.02C375.149 48.7857 373.71 48.6686 372.27 48.67C367.43 48.67 364.17 50.5234 362.49 54.23V86.38H351.93V39.38H362.01L362.28 44.64C364.82 40.56 368.353 38.52 372.88 38.52C374.15 38.4812 375.416 38.6849 376.61 39.12L376.57 49.02Z" fill="#425066"/>
<path d="M420.73 59.58H395.25V86.38H384.25V23.13H424.44V31.99H395.24V50.8H420.73V59.58Z" fill="#425066"/>
<path d="M441.57 86.38H431.01V22.99H441.57V86.38Z" fill="#425066"/>
<path d="M449.3 62.44C449.232 58.1365 450.17 53.8767 452.04 50C453.716 46.4697 456.389 43.5077 459.73 41.48C463.175 39.4508 467.113 38.4126 471.11 38.48C477.457 38.48 482.607 40.52 486.56 44.6C490.513 48.68 492.65 54.0967 492.97 60.85V63.33C493.054 67.6134 492.155 71.859 490.34 75.74C488.683 79.2574 486.021 82.2048 482.69 84.21C479.211 86.2525 475.234 87.291 471.2 87.21C464.573 87.21 459.267 85.0034 455.28 80.59C451.293 76.1767 449.293 70.29 449.28 62.93L449.3 62.44ZM459.86 63.36C459.86 68.1867 460.86 71.9733 462.86 74.72C463.798 76.0442 465.053 77.1128 466.509 77.8288C467.966 78.5449 469.578 78.8856 471.2 78.82C472.826 78.8837 474.442 78.5347 475.897 77.8055C477.351 77.0764 478.598 75.9908 479.52 74.65C481.52 71.87 482.52 67.8 482.52 62.44C482.52 57.6933 481.497 53.93 479.45 51.15C478.493 49.8626 477.25 48.8157 475.818 48.0921C474.387 47.3686 472.806 46.9884 471.203 46.9816C469.599 46.9748 468.015 47.3416 466.577 48.053C465.14 48.7644 463.888 49.8007 462.92 51.08C460.88 53.82 459.86 57.9133 459.86 63.36Z" fill="#425066"/>
<path d="M540.65 71.83L548.13 39.37H558.42L545.61 86.37H536.92L526.84 54.09L516.93 86.37H508.24L495.38 39.37H505.73L513.33 71.48L522.98 39.37H530.93L540.65 71.83Z" fill="#425066"/>
<defs>
<linearGradient id="paint0_linear_2_66" x1="-4.00999" y1="51.49" x2="104.25" y2="51.49" gradientUnits="userSpaceOnUse">
<stop stop-color="#FF6F00"/>
<stop offset="1" stop-color="#FFA800"/>
</linearGradient>
<linearGradient id="paint1_linear_2_66" x1="-4.74001" y1="51.49" x2="103.52" y2="51.49" gradientUnits="userSpaceOnUse">
<stop stop-color="#FF6F00"/>
<stop offset="1" stop-color="#FFA800"/>
</linearGradient>
</defs>
</svg>
