<svg width="500" height="373" viewBox="0 0 500 373" fill="none" xmlns="http://www.w3.org/2000/svg">
    <path d="M500 327.446H0V327.696H500V327.446Z" fill="#EBEBEB"/>
    <path d="M449.901 343.542H416.779V343.792H449.901V343.542Z" fill="#EBEBEB"/>
    <path d="M331.22 346.256H322.527V346.506H331.22V346.256Z" fill="#EBEBEB"/>
    <path d="M415.778 334.256H396.586V334.506H415.778V334.256Z" fill="#EBEBEB"/>
    <path d="M95.652 335.936H52.459V336.186H95.652V335.936Z" fill="#EBEBEB"/>
    <path d="M110.889 335.936H104.556V336.186H110.889V335.936Z" fill="#EBEBEB"/>
    <path d="M225.147 340.159H131.471V340.409H225.147V340.159Z" fill="#EBEBEB"/>
    <path d="M237.014 282.848H43.915C40.768 282.848 38.207 280.287 38.207 277.14V5.708C38.207 2.561 40.768 0 43.915 0H237.014C240.16 0 242.721 2.561 242.721 5.708V277.14C242.721 280.287 240.16 282.848 237.014 282.848ZM43.915 0.250999C40.905 0.250999 38.457 2.699 38.457 5.709V277.141C38.457 280.151 40.905 282.599 43.915 282.599H237.014C240.023 282.599 242.471 280.151 242.471 277.141V5.708C242.471 2.699 240.023 0.25 237.014 0.25L43.915 0.250999Z"
          fill="#EBEBEB"/>
    <path d="M453.31 282.848H260.212C257.065 282.848 254.505 280.287 254.505 277.14V5.708C254.505 2.561 257.066 0 260.212 0H453.31C456.458 0 459.018 2.561 459.018 5.708V277.14C459.019 280.287 456.458 282.848 453.31 282.848ZM260.212 0.250999C257.203 0.250999 254.755 2.699 254.755 5.709V277.141C254.755 280.151 257.203 282.599 260.212 282.599H453.31C456.32 282.599 458.768 280.151 458.768 277.141V5.708C458.768 2.699 456.32 0.25 453.31 0.25L260.212 0.250999Z"
          fill="#EBEBEB"/>
    <path d="M85.3931 182.822H91.0261L91.0261 64.3257H85.3931L85.3931 182.822Z" fill="#E0E0E0"/>
    <path d="M195.787 64.3251H88.645V182.821H195.787V64.3251Z" fill="#E0E0E0"/>
    <path d="M199.208 64.3251H88.083V182.821H199.208V64.3251Z" fill="#F0F0F0"/>
    <path d="M194.507 68.1051H92.606V177.377H194.507V68.1051Z" fill="white"/>
    <path d="M194.508 68.1051H191.561V177.377H194.508V68.1051Z" fill="#E0E0E0"/>
    <path d="M92.3451 146.683V149.63H191.875V146.683H92.3451Z" fill="#E0E0E0"/>
    <path d="M194.508 141.736H91.026V146.683H194.508V141.736Z" fill="#F0F0F0"/>
    <path d="M273.703 325.593H421.118V138.923L273.703 138.923V325.593Z" fill="#F0F0F0"/>
    <path d="M278.914 185.643L415.908 185.643V145.726H278.914V185.643Z" fill="#E0E0E0"/>
    <path d="M408.125 185.643H415.907V152.188H408.125V185.643Z" fill="#EBEBEB"/>
    <path d="M370.495 185.643H378.277V152.188H370.495V185.643Z" fill="#EBEBEB"/>
    <path d="M322.079 184.327L329.748 185.649L335.428 152.679L327.759 151.357L322.079 184.327Z" fill="#EBEBEB"/>
    <path d="M398.483 185.643H406.265V156.597H398.483V185.643Z" fill="#EBEBEB"/>
    <path d="M380.595 185.643H388.377V156.597H380.595V185.643Z" fill="#EBEBEB"/>
    <path d="M335.445 185.643H343.227V156.597H335.445V185.643Z" fill="#EBEBEB"/>
    <path d="M353.965 183.961L361.562 185.648L367.862 157.294L360.265 155.606L353.965 183.961Z" fill="#EBEBEB"/>
    <path d="M391.753 185.643H395.644V150.527H391.753V185.643Z" fill="#EBEBEB"/>
    <path d="M345.465 185.643H349.356V150.527H345.465V185.643Z" fill="#EBEBEB"/>
    <path d="M415.907 191.963H278.913V231.88H415.907V191.963Z" fill="#E0E0E0"/>
    <path d="M286.695 198.426H278.913V231.881H286.695V198.426Z" fill="#EBEBEB"/>
    <path d="M324.325 198.426H316.543V231.881H324.325V198.426Z" fill="#EBEBEB"/>
    <path d="M367.044 197.612L359.375 198.933L365.056 231.903L372.725 230.582L367.044 197.612Z" fill="#EBEBEB"/>
    <path d="M296.338 202.834H288.556V231.88H296.338V202.834Z" fill="#EBEBEB"/>
    <path d="M314.225 202.834H306.443V231.88H314.225V202.834Z" fill="#EBEBEB"/>
    <path d="M359.375 202.834H351.593V231.88H359.375V202.834Z" fill="#EBEBEB"/>
    <path d="M334.547 201.842L326.95 203.53L333.251 231.884L340.847 230.197L334.547 201.842Z" fill="#EBEBEB"/>
    <path d="M303.068 196.765H299.177V231.881H303.068V196.765Z" fill="#EBEBEB"/>
    <path d="M349.356 196.765H345.465V231.881H349.356V196.765Z" fill="#EBEBEB"/>
    <path d="M408.125 231.88H415.907V198.425H408.125V231.88Z" fill="#EBEBEB"/>
    <path d="M398.483 231.881H406.265V202.835H398.483V231.881Z" fill="#EBEBEB"/>
    <path d="M380.595 231.881H388.377V202.835H380.595V231.881Z" fill="#EBEBEB"/>
    <path d="M391.753 231.88H395.644V196.764H391.753V231.88Z" fill="#EBEBEB"/>
    <path d="M278.914 278.118H415.908V238.201H278.914V278.118Z" fill="#E0E0E0"/>
    <path d="M329.496 278.118H337.278V244.663H329.496V278.118Z" fill="#EBEBEB"/>
    <path d="M281.076 276.799L288.745 278.12L294.426 245.15L286.756 243.829L281.076 276.799Z" fill="#EBEBEB"/>
    <path d="M357.482 278.118H365.264V249.072H357.482V278.118Z" fill="#EBEBEB"/>
    <path d="M339.595 278.118H347.377V249.072H339.595V278.118Z" fill="#EBEBEB"/>
    <path d="M294.446 278.118H302.228V249.072H294.446V278.118Z" fill="#EBEBEB"/>
    <path d="M312.965 276.432L320.561 278.12L326.861 249.766L319.265 248.078L312.965 276.432Z" fill="#EBEBEB"/>
    <path d="M350.753 278.118H354.644V243.002H350.753V278.118Z" fill="#EBEBEB"/>
    <path d="M304.464 278.118H308.355V243.002H304.464V278.118Z" fill="#EBEBEB"/>
    <path d="M370.604 276.803L378.273 278.124L383.954 245.154L376.284 243.833L370.604 276.803Z" fill="#EBEBEB"/>
    <path d="M383.976 278.118H391.758V249.072H383.976V278.118Z" fill="#EBEBEB"/>
    <path d="M402.495 276.434L410.092 278.122L416.392 249.767L408.795 248.079L402.495 276.434Z" fill="#EBEBEB"/>
    <path d="M393.996 278.118H397.887V243.002H393.996V278.118Z" fill="#EBEBEB"/>
    <path d="M176.405 210.827H90.8381C81.5571 210.827 74.0331 218.351 74.0331 227.632V294.448H193.21V227.632C193.21 218.351 185.686 210.827 176.405 210.827Z"
          fill="#E6E6E6"/>
    <path d="M218.508 260.35H203.196C197.681 260.35 193.21 264.821 193.21 270.336V325.593H228.495V270.336C228.494 264.82 224.023 260.35 218.508 260.35Z"
          fill="#E0E0E0"/>
    <path d="M218.508 260.35H218.184C212.669 260.35 208.198 264.821 208.198 270.336V325.593H228.494V270.336C228.494 264.82 224.023 260.35 218.508 260.35Z"
          fill="#EBEBEB"/>
    <path d="M203.925 300.21H86.4961V325.593H203.925V300.21Z" fill="#E6E6E6"/>
    <path d="M204.092 276.996H90.8431C85.2361 276.996 80.6901 281.542 80.6901 287.149V293.473C80.6901 299.08 85.2361 303.626 90.8431 303.626H204.091C209.698 303.626 214.244 299.08 214.244 293.473V287.149C214.244 281.542 209.699 276.996 204.092 276.996Z"
          fill="#F5F5F5"/>
    <path d="M105.075 276.996H91.0291C85.4221 276.996 80.8761 281.542 80.8761 287.149V293.473C80.8761 299.08 85.4221 303.626 91.0291 303.626H105.076C110.683 303.626 115.229 299.08 115.229 293.473V287.149C115.228 281.542 110.682 276.996 105.075 276.996Z"
          fill="#E0E0E0"/>
    <path d="M89.5141 260.35H74.2021C68.6871 260.35 64.2161 264.821 64.2161 270.336V325.593H99.5001V270.336C99.5001 264.82 95.0291 260.35 89.5141 260.35Z"
          fill="#E0E0E0"/>
    <path d="M89.5141 260.35H89.1911C83.6761 260.35 79.2051 264.821 79.2051 270.336V325.593H99.5001V270.336C99.5001 264.82 95.0291 260.35 89.5141 260.35Z"
          fill="#F0F0F0"/>
    <path d="M343.684 94.5711C354.927 94.5711 364.041 85.4569 364.041 74.2141C364.041 62.9712 354.927 53.8571 343.684 53.8571C332.441 53.8571 323.327 62.9712 323.327 74.2141C323.327 85.4569 332.441 94.5711 343.684 94.5711Z"
          fill="#E0E0E0"/>
    <path d="M360.777 76.9847C362.308 67.5491 355.901 58.6586 346.465 57.1272C337.029 55.5959 328.139 62.0036 326.608 71.4392C325.076 80.8748 331.484 89.7653 340.92 91.2967C350.355 92.828 359.246 86.4203 360.777 76.9847Z"
          fill="#F0F0F0"/>
    <path d="M342.868 62.3401V74.4401L334.849 69.9021" fill="#F0F0F0"/>
    <path d="M342.868 75.3041C342.721 75.3041 342.574 75.2671 342.442 75.1921L334.424 70.6551C334.009 70.4201 333.863 69.8931 334.098 69.4771C334.332 69.0621 334.859 68.9151 335.276 69.1511L342.004 72.9581V62.3401C342.004 61.8621 342.391 61.4761 342.868 61.4761C343.346 61.4761 343.732 61.8631 343.732 62.3401V74.4401C343.732 74.7481 343.569 75.0321 343.303 75.1871C343.168 75.2651 343.018 75.3041 342.868 75.3041Z"
          fill="#E0E0E0"/>
    <path d="M250 372.61C357.082 372.61 443.889 366.447 443.889 358.844C443.889 351.241 357.082 345.078 250 345.078C142.918 345.078 56.1111 351.241 56.1111 358.844C56.1111 366.447 142.918 372.61 250 372.61Z"
          fill="#F5F5F5"/>
    <path d="M388.66 150.869H361.707C356.589 150.869 352.439 155.018 352.439 160.137V171.322C352.439 176.44 356.588 180.59 361.707 180.59H373.247L376.354 190.375L379.481 180.59H388.66C393.778 180.59 397.927 176.441 397.927 171.322V160.137C397.927 155.018 393.778 150.869 388.66 150.869Z"
          fill="#B3833C"/>
    <path d="M364.681 165.089C364.681 166.123 363.843 166.961 362.809 166.961C361.775 166.961 360.937 166.123 360.937 165.089C360.937 164.055 361.775 163.217 362.809 163.217C363.843 163.217 364.681 164.055 364.681 165.089ZM371.059 163.217C370.025 163.217 369.187 164.055 369.187 165.089C369.187 166.123 370.025 166.961 371.059 166.961C372.093 166.961 372.931 166.123 372.931 165.089C372.931 164.055 372.092 163.217 371.059 163.217ZM379.308 163.217C378.274 163.217 377.436 164.055 377.436 165.089C377.436 166.123 378.274 166.961 379.308 166.961C380.342 166.961 381.18 166.123 381.18 165.089C381.18 164.055 380.342 163.217 379.308 163.217ZM387.558 163.217C386.524 163.217 385.686 164.055 385.686 165.089C385.686 166.123 386.524 166.961 387.558 166.961C388.592 166.961 389.43 166.123 389.43 165.089C389.43 164.055 388.591 163.217 387.558 163.217Z"
          fill="white"/>
    <path d="M111.5 183.866H84.5471C79.4291 183.866 75.2791 188.015 75.2791 193.134V204.319C75.2791 209.437 79.4281 213.587 84.5471 213.587H96.0881L99.1951 223.372L102.322 213.587H111.501C116.619 213.587 120.768 209.438 120.768 204.319V193.134C120.768 188.016 116.618 183.866 111.5 183.866Z"
          fill="#B3833C"/>
    <path d="M87.5211 198.087C87.5211 199.121 86.6831 199.959 85.6491 199.959C84.6151 199.959 83.7771 199.121 83.7771 198.087C83.7771 197.053 84.6151 196.215 85.6491 196.215C86.6831 196.215 87.5211 197.053 87.5211 198.087ZM93.8991 196.215C92.8651 196.215 92.0271 197.053 92.0271 198.087C92.0271 199.121 92.8651 199.959 93.8991 199.959C94.9331 199.959 95.7711 199.121 95.7711 198.087C95.7711 197.053 94.9331 196.215 93.8991 196.215ZM102.148 196.215C101.114 196.215 100.276 197.053 100.276 198.087C100.276 199.121 101.114 199.959 102.148 199.959C103.182 199.959 104.02 199.121 104.02 198.087C104.02 197.053 103.182 196.215 102.148 196.215ZM110.398 196.215C109.364 196.215 108.526 197.053 108.526 198.087C108.526 199.121 109.364 199.959 110.398 199.959C111.432 199.959 112.27 199.121 112.27 198.087C112.27 197.053 111.432 196.215 110.398 196.215Z"
          fill="white"/>
    <path d="M412.981 360.245H286.08C262.369 360.245 260.848 332.328 280.335 319.187C283.611 316.962 287.488 315.169 291.946 313.996C330.536 303.849 384.763 235.616 422.902 264.171C422.94 264.19 422.968 264.218 423.005 264.246C461.154 292.998 434.561 360.245 412.981 360.245Z"
          fill="#263238"/>
    <path opacity="0.5"
          d="M412.981 360.245H286.08C262.369 360.245 260.848 332.328 280.335 319.187C283.611 316.962 287.488 315.169 291.946 313.996C330.536 303.849 384.763 235.616 422.902 264.171C422.94 264.19 422.968 264.218 423.005 264.246C461.154 292.998 434.561 360.245 412.981 360.245Z"
          fill="white"/>
    <path opacity="0.2"
          d="M422.903 264.171C419.702 263.955 415.816 264.856 411.639 268.357C400.788 277.462 417.291 321.266 391.34 339.488C376.861 349.654 314.394 354.14 293.543 341.668C278.146 332.458 277.952 326.687 280.336 319.186C283.612 316.961 287.489 315.168 291.947 313.995C330.536 303.849 384.764 235.616 422.903 264.171Z"
          fill="black"/>
    <path d="M324.219 255.906L316.655 250.573L322.314 244.789C322.314 244.789 328.125 247.773 327.57 253.134L324.219 255.906Z"
          fill="#E2BB91"/>
    <path d="M313.682 244.695L318.932 241.393L322.313 244.79L316.655 250.574L313.682 244.695Z" fill="#E2BB91"/>
    <path d="M361.464 242.135C354.285 244.251 350.757 256.861 344.838 268.768L327.608 251.643L322.132 256.507C322.132 256.507 337.915 281.575 345.363 281.582C354.657 281.591 364.313 255.747 364.313 255.747L361.464 242.135Z"
          fill="#263238"/>
    <path opacity="0.1"
          d="M364.31 255.749C364.31 255.749 362.78 259.842 360.349 264.77C358.002 269.548 354.801 275.114 351.338 278.484C349.395 280.38 347.367 281.582 345.359 281.582C337.915 281.573 322.136 256.51 322.136 256.51L327.609 251.648L344.843 268.77C350.757 256.858 354.286 244.252 361.467 242.14L364.31 255.749Z"
          fill="white"/>
    <path opacity="0.2"
          d="M360.349 264.77C358.002 269.548 354.801 275.114 351.338 278.484C351.713 267.06 357.317 255.909 357.317 255.909C358.959 258.762 359.917 261.785 360.349 264.77Z"
          fill="black"/>
    <path d="M354.597 311.798C354.597 311.798 293.746 303.06 290.534 316.412C287.137 330.53 335.997 340.052 365.199 341.047C394.401 342.042 402.778 335.09 398.086 299.006H358.11L354.597 311.798Z"
          fill="#B3833C"/>
    <path opacity="0.6"
          d="M354.597 311.798C354.597 311.798 293.746 303.06 290.534 316.412C287.137 330.53 335.997 340.052 365.199 341.047C394.401 342.042 402.778 335.09 398.086 299.006H358.11L354.597 311.798Z"
          fill="white"/>
    <path d="M320.715 339.641L307.962 339.65L301.838 339.655L301.108 333.21L306.771 332.453L320.602 330.604L320.715 339.641Z"
          fill="#E2BB91"/>
    <path d="M302.49 332.4L304.042 339.756C304.128 340.166 303.859 340.567 303.446 340.641L299.78 341.3C299.78 341.3 294.911 342.539 293.544 341.665C289.549 339.112 285.7 322.929 287.327 321.731C287.923 321.292 288.955 321.956 289.47 322.484C291.107 324.161 294.605 328.83 295.988 330.212C297.605 331.828 300.474 331.877 301.734 331.811C302.097 331.793 302.415 332.044 302.49 332.4Z"
          fill="#263238"/>
    <path opacity="0.2" d="M320.715 339.641L307.962 339.65L306.771 332.453L320.602 330.604L320.715 339.641Z"
          fill="black"/>
    <path d="M339.345 328.26L351.446 332.284L357.258 334.216L355.912 340.561L350.301 339.488L336.595 336.869L339.345 328.26Z"
          fill="#E2BB91"/>
    <path d="M354.346 340.892L355.199 333.423C355.247 333.006 355.629 332.712 356.044 332.772L359.731 333.306C359.731 333.306 364.742 333.67 365.763 334.932C368.746 338.617 367.281 355.187 365.359 355.81C364.655 356.038 363.886 355.081 363.564 354.418C362.541 352.31 360.699 346.774 359.824 345.025C358.801 342.981 356.094 342.027 354.879 341.691C354.527 341.593 354.305 341.254 354.346 340.892Z"
          fill="#263238"/>
    <path opacity="0.2" d="M339.345 328.26L351.446 332.284L350.301 339.488L336.595 336.869L339.345 328.26Z"
          fill="black"/>
    <path d="M348.196 340.613L344.746 340.935L346.807 329.001L350.772 331.086L348.196 340.613Z" fill="#B3833C"/>
    <path opacity="0.6" d="M348.196 340.613L344.746 340.935L346.807 329.001L350.772 331.086L348.196 340.613Z"
          fill="white"/>
    <path d="M359.749 344.935C359.841 345.476 359.76 346.032 359.516 346.524C359.32 346.825 358.978 346.997 358.619 346.975C358.402 346.987 358.196 346.883 358.077 346.701C357.564 345.818 358.775 343.106 358.928 342.804C358.952 342.738 359.019 342.697 359.089 342.707C359.167 342.715 359.232 342.77 359.253 342.846C359.489 343.523 359.655 344.223 359.749 344.935ZM358.311 346.239C358.319 346.326 358.344 346.411 358.386 346.489C358.428 346.566 358.513 346.609 358.599 346.597C358.847 346.627 359.089 346.509 359.219 346.296C359.513 345.347 359.46 344.324 359.069 343.411C358.647 344.299 358.39 345.258 358.311 346.239Z"
          fill="#B3833C"/>
    <path d="M359.284 342.872L359.244 342.952C358.907 343.819 357.414 345.541 356.56 345.422C356.272 345.372 356.056 345.129 356.041 344.837C355.974 344.552 356.025 344.252 356.182 344.005C356.804 343.014 358.951 342.692 359.071 342.697C359.14 342.685 359.208 342.72 359.24 342.782C359.263 342.807 359.278 342.838 359.284 342.872ZM356.402 344.696L356.415 344.781C356.468 345.03 356.574 345.04 356.623 345.053C357.121 345.126 358.265 344.008 358.767 343.146C358.143 343.277 356.904 343.612 356.51 344.238C356.423 344.374 356.385 344.535 356.402 344.696Z"
          fill="#B3833C"/>
    <path d="M309.12 331.516C309.12 331.516 365.732 309.528 383.069 313.202C400.406 316.875 400.487 325.949 391.699 334.408C382.911 342.866 369.779 339.607 369.779 339.607C369.779 339.607 380.097 333.423 379.378 329.607C378.658 325.79 372.099 334.519 372.099 334.519C372.099 334.519 337.885 342.886 309.635 340.68L309.12 331.516Z"
          fill="#B3833C"/>
    <path d="M296.381 330.331C296.05 329.893 295.866 329.362 295.855 328.814C295.89 328.457 296.115 328.146 296.443 328C296.63 327.889 296.861 327.887 297.05 327.993C297.913 328.54 298.087 331.505 298.091 331.844C298.1 331.914 298.06 331.981 297.993 332.005C297.92 332.034 297.837 332.015 297.783 331.958C297.263 331.464 296.792 330.919 296.381 330.331ZM297.056 328.511C297.009 328.437 296.947 328.373 296.875 328.324C296.803 328.275 296.707 328.276 296.636 328.327C296.403 328.415 296.241 328.631 296.224 328.879C296.4 329.857 296.919 330.74 297.687 331.37C297.652 330.387 297.438 329.418 297.056 328.511Z"
          fill="#B3833C"/>
    <path d="M297.744 331.947L297.743 331.857C297.642 330.932 298.174 328.716 298.987 328.427C299.266 328.339 299.569 328.455 299.717 328.707C299.908 328.929 300.001 329.219 299.976 329.51C299.88 330.676 298.123 331.951 298.014 332.002C297.958 332.044 297.881 332.045 297.825 332.004C297.793 331.995 297.765 331.974 297.744 331.947ZM299.462 329L299.411 328.931C299.25 328.734 299.15 328.775 299.101 328.785C298.625 328.95 298.125 330.469 298.077 331.465C298.57 331.061 299.516 330.193 299.577 329.456C299.591 329.296 299.55 329.135 299.462 329Z"
          fill="#B3833C"/>
    <path opacity="0.7"
          d="M309.12 331.516C309.12 331.516 365.732 309.528 383.069 313.202C400.406 316.875 400.487 325.949 391.699 334.408C382.911 342.866 369.779 339.607 369.779 339.607C369.779 339.607 380.097 333.423 379.378 329.607C378.658 325.79 372.099 334.519 372.099 334.519C372.099 334.519 337.885 342.886 309.635 340.68L309.12 331.516Z"
          fill="white"/>
    <path d="M308.432 331.345L311.613 329.888L313.441 341.802L309.02 341.077L308.432 331.345Z" fill="#B3833C"/>
    <path opacity="0.6" d="M308.432 331.345L311.613 329.888L313.441 341.802L309.02 341.077L308.432 331.345Z"
          fill="white"/>
    <path d="M402.111 244.066C395.997 278.044 398.22 300.059 398.22 300.059C398.22 300.059 369.791 299.669 358.11 299.007C351.877 257.799 361.464 242.136 361.464 242.136C361.464 242.136 365.731 241.225 370.707 240.868C371.362 240.817 372.029 240.785 372.707 240.763C377.091 240.612 384.257 241.175 389.199 241.691C390.238 241.8 391.29 241.938 392.312 242.089C397.518 242.863 402.111 244.066 402.111 244.066Z"
          fill="#263238"/>
    <path opacity="0.1"
          d="M402.111 244.062C401.351 248.277 400.722 252.313 400.196 256.133C399.379 262.169 398.826 267.698 398.469 272.635C398.357 274.128 398.263 275.573 398.187 276.953C397.896 282.022 397.821 286.349 397.83 289.85C397.858 296.43 398.224 300.054 398.224 300.054C398.224 300.054 369.791 299.669 358.105 299.003C351.872 257.795 361.466 242.137 361.466 242.137C361.466 242.137 365.727 241.226 370.712 240.87C371.36 240.814 372.026 240.786 372.712 240.757C377.096 240.607 384.258 241.17 389.205 241.686C390.237 241.799 391.289 241.939 392.312 242.09C397.521 242.861 402.111 244.062 402.111 244.062Z"
          fill="white"/>
    <path opacity="0.2"
          d="M376.719 281.581C388.396 280.004 395.577 277.845 398.187 276.953C397.896 282.022 397.821 286.349 397.83 289.85C384.258 291.102 378.721 288.491 378.721 288.491L376.719 281.581Z"
          fill="black"/>
    <path opacity="0.2"
          d="M400.196 256.134C399.379 262.17 398.826 267.699 398.469 272.636C394.583 264.713 397.455 255.214 397.455 255.214L400.196 256.134Z"
          fill="black"/>
    <path d="M378.263 295.54H357.582C356.785 295.54 356.083 294.891 356.014 294.091L353.135 266.643C353.066 265.842 353.656 265.194 354.453 265.194H375.134C375.931 265.194 376.633 265.843 376.702 266.643L379.581 294.091C379.649 294.891 379.06 295.54 378.263 295.54Z"
          fill="#263238"/>
    <path opacity="0.6"
          d="M378.263 295.54H357.582C356.785 295.54 356.083 294.891 356.014 294.091L353.135 266.643C353.066 265.842 353.656 265.194 354.453 265.194H375.134C375.931 265.194 376.633 265.843 376.702 266.643L379.581 294.091C379.649 294.891 379.06 295.54 378.263 295.54Z"
          fill="white"/>
    <path opacity="0.2"
          d="M377.398 295.54H357.582C356.785 295.54 356.083 294.891 356.014 294.091L353.135 266.643C353.066 265.842 353.656 265.194 354.453 265.194H374.269C375.066 265.194 375.768 265.843 375.837 266.643L378.716 294.091C378.785 294.891 378.195 295.54 377.398 295.54Z"
          fill="white"/>
    <path d="M365.34 278.122C364.106 278.122 363.193 279.127 363.3 280.366C363.407 281.606 364.494 282.61 365.728 282.61C366.962 282.61 367.875 281.605 367.768 280.366C366.534 280.366 365.447 279.361 365.34 278.122Z"
          fill="#263238"/>
    <path opacity="0.3"
          d="M369.815 267.372H358.892C358.358 267.372 357.85 267.045 357.61 266.547L356.956 265.193H371.375L370.955 266.547C370.801 267.045 370.349 267.372 369.815 267.372Z"
          fill="black"/>
    <path d="M376.238 280.699L371.461 280.307L371.66 286.666L375.683 288.771L384.899 287.923L385.651 283.64C382.596 279.201 376.238 280.699 376.238 280.699Z"
          fill="#E2BB91"/>
    <path d="M402.111 244.066C407.016 245.551 413.979 274.053 412.865 280.366C411.751 286.679 399.651 289.354 384.258 289.019V281.582L402.111 276.372L399.103 265.333C399.103 265.333 396.619 257.248 397.733 251.585C398.667 246.834 402.111 244.066 402.111 244.066Z"
          fill="#263238"/>
    <path opacity="0.1"
          d="M402.111 244.066C407.016 245.551 413.979 274.053 412.865 280.366C411.751 286.679 399.651 289.354 384.258 289.019V281.582L402.111 276.372L399.103 265.333C399.103 265.333 396.619 257.248 397.733 251.585C398.667 246.834 402.111 244.066 402.111 244.066Z"
          fill="white"/>
    <path d="M386.82 241.361C384.332 243.961 380.418 246.139 374.148 245.904C369.342 245.716 368.675 242.694 369.511 241.042C372.43 240.441 373.754 239.165 374.157 237.55C374.598 235.832 373.997 233.748 373.153 231.73L381.263 224.896L382.634 223.741C382.606 224.126 382.578 224.539 382.559 224.971C382.484 226.388 382.474 228.031 382.578 229.73C382.84 234.198 383.9 239.07 386.82 241.361Z"
          fill="#E2BB91"/>
    <path opacity="0.2"
          d="M382.577 229.73C381.066 232.818 378.418 236.545 374.157 237.549C374.598 235.831 373.997 233.747 373.153 231.729L381.263 224.895C381.695 224.904 382.127 224.932 382.558 224.97C382.483 226.389 382.473 228.031 382.577 229.73Z"
          fill="black"/>
    <path d="M363.953 211.322C362.759 214.042 362.613 219.881 366.753 218.43C370.894 216.979 366.006 206.648 363.953 211.322Z"
          fill="#263238"/>
    <path d="M383.833 217.345C383.475 224.632 383.637 228.918 379.998 232.667C374.524 238.306 365.476 234.991 363.645 227.723C361.997 221.181 362.859 210.364 369.965 207.447C376.966 204.574 384.191 210.059 383.833 217.345Z"
          fill="#E2BB91"/>
    <path d="M372.79 219.409C372.797 220.002 372.488 220.484 372.1 220.485C371.712 220.486 371.391 220.006 371.383 219.413C371.376 218.82 371.685 218.338 372.073 218.337C372.462 218.336 372.783 218.816 372.79 219.409Z"
          fill="#263238"/>
    <path d="M366.074 219.426C366.081 220.019 365.772 220.501 365.384 220.502C364.996 220.503 364.675 220.023 364.668 219.429C364.661 218.836 364.97 218.354 365.358 218.353C365.746 218.352 366.067 218.832 366.074 219.426Z"
          fill="#263238"/>
    <path d="M368.213 219.715C368.213 219.715 366.869 223.013 365.388 224.616C366.437 225.54 368.218 225.086 368.218 225.086L368.213 219.715Z"
          fill="#DE5753"/>
    <path d="M374.834 217.238C374.714 217.255 374.587 217.208 374.507 217.104C373.553 215.867 372.27 215.945 372.257 215.946C372.065 215.96 371.896 215.816 371.88 215.624C371.864 215.433 372.008 215.266 372.199 215.251C372.267 215.246 373.874 215.148 375.057 216.682C375.175 216.835 375.148 217.054 374.996 217.17C374.947 217.208 374.891 217.231 374.834 217.238Z"
          fill="#263238"/>
    <path d="M363.152 217.126C363.087 217.135 363.018 217.126 362.953 217.095C362.779 217.011 362.704 216.803 362.786 216.63C363.609 214.892 365.199 214.681 365.269 214.663C365.46 214.639 365.636 214.774 365.662 214.964C365.688 215.154 365.557 215.328 365.367 215.354C365.3 215.36 364.078 215.538 363.417 216.933C363.366 217.042 363.264 217.111 363.152 217.126Z"
          fill="#263238"/>
    <path d="M372.388 211.505C372.388 211.505 374.398 210.072 375.31 211.616C376.222 213.16 376.168 217.294 376.168 217.294L376.573 216.564C376.573 216.564 379.155 225.765 382.908 223.446C386.661 221.127 392.174 211.789 383.409 207.026C383.409 207.026 382.478 204.803 376.686 203.711C370.894 202.618 363.895 206.19 362.697 210.017C361.498 213.844 363.18 215.976 363.18 215.976C363.495 214.589 364.293 213.707 364.293 213.707C364.426 214.946 365.737 215.468 365.737 215.468C365.706 213.958 366.21 213.21 366.21 213.21C366.319 214.028 367.177 215.051 367.177 215.051C367.598 211.11 370.277 210.306 371.124 210.338C372.166 210.379 372.388 211.505 372.388 211.505Z"
          fill="#263238"/>
    <path d="M386.718 223.38C386.159 225.262 384.779 226.702 383.344 227.437C381.185 228.543 379.601 226.721 379.778 224.424C379.938 222.357 381.254 219.291 383.625 219.138C385.96 218.987 387.357 221.229 386.718 223.38Z"
          fill="#E2BB91"/>
    <path d="M368.447 227.529C369.166 228.208 370.174 229.618 370.174 229.618C370.318 229.55 370.462 229.481 370.603 229.406C372.535 228.431 373.109 227.34 373.159 226.427C373.185 225.928 373.047 225.478 372.89 225.134C372.713 224.734 372.495 224.49 372.495 224.49C371.78 225.619 370.049 226.667 369.101 227.188C368.706 227.409 368.447 227.529 368.447 227.529Z"
          fill="#263238"/>
    <path d="M369.101 227.186L369.626 227.789C371.444 226.866 372.599 225.972 372.89 225.133C372.713 224.733 372.495 224.489 372.495 224.489C371.78 225.617 370.049 226.665 369.101 227.186Z"
          fill="white"/>
    <path d="M370.603 229.405C372.535 228.43 373.109 227.339 373.159 226.426C372.514 226.784 371.775 227.287 371.229 227.934C370.809 228.427 370.649 228.943 370.603 229.405Z"
          fill="#A24E3F"/>
    <path d="M194.408 251.231L194.931 256.78C194.931 256.78 227.411 261.717 232.61 266.799C237.809 271.881 256.263 351.887 256.263 351.887L248.814 352.912C248.814 352.912 222.997 293.896 221.614 285.364C221.614 285.364 198.878 286.213 183.359 286.213C167.84 286.213 165.986 251.23 165.986 251.23H194.408V251.231Z"
          fill="#B3833C"/>
    <path opacity="0.3"
          d="M256.262 351.883L248.818 352.916C248.818 352.916 238.258 328.792 230.288 309.154C225.782 298.087 222.112 288.447 221.615 285.368C221.615 285.368 205.883 285.95 191.661 286.147C188.779 286.185 185.973 286.213 183.363 286.213C167.837 286.213 165.988 251.228 165.988 251.228H194.412L194.928 256.776C194.928 256.776 227.416 261.714 232.607 266.801C237.807 271.879 256.262 351.883 256.262 351.883Z"
          fill="white"/>
    <path d="M261.99 359.074C256.98 359.074 256.318 358.997 253.503 358.902C251.093 358.816 250.516 359.117 248.579 359.074C246.96 359.039 247.021 357.49 247.52 355.708C247.77 354.813 248.154 352.921 248.499 351.475L255.839 350.942C256.872 352.913 259.202 355.725 262.026 356.105C264.72 356.465 263.987 359.074 261.99 359.074Z"
          fill="#263238"/>
    <path opacity="0.2"
          d="M230.288 309.154C225.782 298.087 222.112 288.447 221.615 285.368C221.615 285.368 205.883 285.95 191.661 286.147L190.116 258.956C190.116 258.956 210.202 261.833 223.698 273.465C225.374 274.909 228.702 297.176 230.288 309.154Z"
          fill="black"/>
    <path d="M169.672 283.31H218.799C221.28 283.31 223.292 285.322 223.292 287.803V291.372H165.18V287.803C165.18 285.321 167.191 283.31 169.672 283.31Z"
          fill="#263238"/>
    <path opacity="0.2"
          d="M169.672 283.31H218.799C221.28 283.31 223.292 285.322 223.292 287.803V291.372H165.18V287.803C165.18 285.321 167.191 283.31 169.672 283.31Z"
          fill="white"/>
    <path d="M221.272 343.628L198.87 341.675V312.254H190.994V341.667L168.512 343.628C166.531 343.823 165.021 345.488 165.021 347.479V350.463H194.162H195.622H224.763V347.479C224.762 345.488 223.253 343.823 221.272 343.628Z"
          fill="#263238"/>
    <path d="M172.273 354.164C172.273 357.008 169.968 359.313 167.124 359.313C164.28 359.313 161.975 357.008 161.975 354.164C161.975 351.32 164.28 349.015 167.124 349.015C169.967 349.015 172.273 351.32 172.273 354.164Z"
          fill="#263238"/>
    <path d="M222.659 359.313C225.503 359.313 227.808 357.008 227.808 354.164C227.808 351.32 225.503 349.015 222.659 349.015C219.815 349.015 217.51 351.32 217.51 354.164C217.51 357.008 219.815 359.313 222.659 359.313Z"
          fill="#263238"/>
    <path d="M196.512 318.256H193.352C191.301 318.256 189.638 316.593 189.638 314.542V289.457H200.226V314.543C200.226 316.594 198.563 318.256 196.512 318.256Z"
          fill="#263238"/>
    <path opacity="0.2"
          d="M196.512 318.256H193.352C191.301 318.256 189.638 316.593 189.638 314.542V289.457H200.226V314.543C200.226 316.594 198.563 318.256 196.512 318.256Z"
          fill="white"/>
    <path d="M164.775 288.28H223.696C224.694 288.28 225.503 289.089 225.503 290.087V290.503C225.503 291.501 224.694 292.31 223.696 292.31H164.775C163.777 292.31 162.968 291.501 162.968 290.503V290.086C162.968 289.089 163.777 288.28 164.775 288.28Z"
          fill="#263238"/>
    <path opacity="0.2"
          d="M172.273 354.164C172.273 357.008 169.968 359.313 167.124 359.313C164.28 359.313 161.975 357.008 161.975 354.164C161.975 351.32 164.28 349.015 167.124 349.015C169.967 349.015 172.273 351.32 172.273 354.164Z"
          fill="white"/>
    <path opacity="0.2"
          d="M222.659 359.313C225.503 359.313 227.808 357.008 227.808 354.164C227.808 351.32 225.503 349.015 222.659 349.015C219.815 349.015 217.51 351.32 217.51 354.164C217.51 357.008 219.815 359.313 222.659 359.313Z"
          fill="white"/>
    <path d="M228.23 241.907H210.28C205.021 241.907 201.224 237.182 201.798 231.354L202.564 223.574C203.138 217.746 207.866 213.021 213.124 213.021H231.074C236.332 213.021 240.13 217.746 239.556 223.575L238.79 231.355C238.216 237.182 233.488 241.907 228.23 241.907Z"
          fill="#263238"/>
    <path opacity="0.2"
          d="M228.23 241.907H210.28C205.021 241.907 201.224 237.182 201.798 231.354L202.564 223.574C203.138 217.746 207.866 213.021 213.124 213.021H231.074C236.332 213.021 240.13 217.746 239.556 223.575L238.79 231.355C238.216 237.182 233.488 241.907 228.23 241.907Z"
          fill="white"/>
    <path d="M226.583 238.117H215.975C212.868 238.117 210.623 235.325 210.962 231.88L211.415 227.282C211.754 223.838 214.548 221.046 217.656 221.046H228.264C231.371 221.046 233.616 223.838 233.277 227.283L232.824 231.881C232.485 235.325 229.691 238.117 226.583 238.117Z"
          fill="#263238"/>
    <path d="M218.164 231.257C218.164 231.257 215.738 279.905 205.261 288.281H216.466C216.466 288.281 226.459 271.708 227.204 231.257H218.164Z"
          fill="#263238"/>
    <path d="M227.184 210.989L229.115 209.95C229.841 209.559 230.712 209.543 231.452 209.908L234.91 211.611C236.292 212.292 237.26 213.6 237.505 215.122L237.657 216.064C234.571 218.007 229.805 217.833 229.805 217.833L228.441 217.934C227.226 218.023 226.211 217.189 226.108 216.016L225.872 213.316C225.792 212.383 226.313 211.457 227.184 210.989Z"
          fill="#B97964"/>
    <path opacity="0.2"
          d="M227.184 210.989L229.115 209.95C229.841 209.559 230.712 209.543 231.452 209.908L234.91 211.611C236.292 212.292 237.26 213.6 237.505 215.122L237.657 216.064C234.571 218.007 229.805 217.833 229.805 217.833L228.441 217.934C227.226 218.023 226.211 217.189 226.108 216.016L225.872 213.316C225.792 212.383 226.313 211.457 227.184 210.989Z"
          fill="black"/>
    <path d="M212.976 213.371L205.967 222.223H199.312L200.175 209.87C205.254 210.836 212.976 213.371 212.976 213.371Z"
          fill="#B3833C"/>
    <path opacity="0.2" d="M205.413 222.222H199.649L203.225 213.37C203.225 213.37 205.282 216.478 205.413 222.222Z"
          fill="black"/>
    <path d="M194.844 254.569L165.529 251.847C166.449 248.731 167.256 245.671 167.941 242.714C168.795 239.109 169.48 235.646 170.025 232.417C170.588 229.188 171.011 226.184 171.339 223.471C171.367 223.208 171.405 222.955 171.433 222.701C171.48 222.269 171.527 221.847 171.574 221.443C171.856 218.815 172.043 216.524 172.165 214.638C172.409 210.949 172.409 208.818 172.409 208.818C189.324 205.636 202.559 210.611 202.559 210.611C206.915 222.889 194.844 254.569 194.844 254.569Z"
          fill="#B3833C"/>
    <path d="M194.74 212.563C194.74 212.563 194.739 212.564 194.739 212.566C192.79 216.614 187.178 217.022 184.673 213.292L183.402 211.399L181.844 209.08C184.463 207.531 185.486 202.565 185.824 198.304C185.824 198.304 185.824 198.304 185.824 198.295C185.927 196.962 185.974 195.695 185.974 194.625L192.554 203.655C192.094 204.641 191.709 205.664 191.531 206.677C191.446 207.109 191.409 207.541 191.428 207.972C191.483 209.663 192.347 211.277 194.74 212.563Z"
          fill="#B97964"/>
    <path opacity="0.2"
          d="M192.553 203.655C192.093 204.641 191.708 205.664 191.53 206.677C189.803 208.892 187.109 211.248 183.401 211.399L181.843 209.08C184.462 207.531 185.485 202.565 185.823 198.304C185.823 198.304 185.823 198.304 185.823 198.295C185.926 196.962 185.973 195.695 185.973 194.625L192.553 203.655Z"
          fill="black"/>
    <path d="M176.739 188.633C176.739 188.633 173.488 187.404 174.445 185.156C175.401 182.908 176.567 182.931 176.567 182.931C176.567 182.931 174.839 179.937 176.45 176.915C178.061 173.893 181.617 175.135 181.617 175.135C181.617 175.135 181.631 171.716 184.923 171.1C188.215 170.483 189.599 173.556 189.599 173.556C189.599 173.556 191.843 170.648 195.12 171.449C198.397 172.249 199.064 176.814 199.064 176.814C199.064 176.814 202.083 175.729 203.617 179.011C205.152 182.292 203.089 184.788 203.089 184.788C203.089 184.788 205.181 183.8 205.875 187.156C206.569 190.512 203.044 193.489 203.044 193.489C203.044 193.489 204.941 193.721 203.963 196.207C202.985 198.693 199.894 198.744 199.894 198.744C199.894 198.744 201.089 199.354 198.817 201.398C196.545 203.442 189.237 200.522 189.237 200.522L176.739 188.633Z"
          fill="#263238"/>
    <path d="M185.681 183.287C178.696 183.652 176.644 187.509 176.509 194.734C176.34 203.762 178.669 210.048 187.302 207.67C199.025 204.44 197.28 182.68 185.681 183.287Z"
          fill="#B97964"/>
    <path d="M181.004 194.107C181.004 194.107 180.132 195.982 179.123 197.11C179.123 197.11 179.771 198.029 181.005 197.804L181.004 194.107Z"
          fill="#A24E3F"/>
    <path d="M185.249 193.312C185.266 193.887 185.589 194.343 185.972 194.332C186.355 194.321 186.652 193.846 186.635 193.272C186.618 192.697 186.295 192.241 185.912 192.252C185.529 192.263 185.232 192.738 185.249 193.312Z"
          fill="#263238"/>
    <path d="M186.073 192.275L184.809 191.821C184.809 191.821 185.462 192.855 186.073 192.275Z" fill="#263238"/>
    <path d="M178.104 193.399C178.121 193.974 178.444 194.43 178.827 194.419C179.21 194.408 179.507 193.933 179.49 193.359C179.473 192.784 179.15 192.328 178.766 192.339C178.385 192.35 178.088 192.825 178.104 193.399Z"
          fill="#263238"/>
    <path d="M178.928 192.362L177.664 191.908C177.664 191.908 178.317 192.942 178.928 192.362Z" fill="#263238"/>
    <path d="M188.151 189.68C188.07 189.68 187.989 189.648 187.93 189.582C186.923 188.47 185.137 188.772 185.119 188.778C184.954 188.803 184.803 188.699 184.773 188.538C184.744 188.377 184.851 188.223 185.012 188.193C185.098 188.176 187.138 187.821 188.371 189.183C188.481 189.304 188.472 189.493 188.35 189.603C188.294 189.654 188.223 189.68 188.151 189.68Z"
          fill="#263238"/>
    <path d="M177.221 189.473C177.13 189.473 177.041 189.432 176.982 189.354C176.884 189.222 176.912 189.036 177.044 188.938C178.643 187.749 180.007 188.156 180.064 188.172C180.221 188.221 180.308 188.388 180.259 188.545C180.21 188.701 180.046 188.789 179.888 188.74C179.842 188.726 178.743 188.413 177.398 189.414C177.345 189.454 177.283 189.473 177.221 189.473Z"
          fill="#263238"/>
    <path d="M193.93 194.659C193.93 194.659 190.364 189.091 190.627 184.635C190.627 184.635 176.49 179.705 176.542 193.789C176.542 193.789 174.537 181.385 186.529 180.479C198.502 179.574 199.389 197.141 193.462 202.699C193.462 202.699 196.139 198.142 193.93 194.659Z"
          fill="#263238"/>
    <path d="M192.867 196.193C192.855 195.066 193.916 193.102 196.019 193.221C198.196 193.344 199.46 197.733 194.132 199.083C193.367 199.277 192.892 198.545 192.867 196.193Z"
          fill="#B97964"/>
    <path d="M182.693 201.873C182.332 201.873 182.097 201.834 182.088 201.833C181.926 201.805 181.818 201.651 181.846 201.489C181.873 201.328 182.029 201.218 182.189 201.247C182.3 201.265 184.929 201.683 185.904 199.268C185.965 199.115 186.139 199.042 186.291 199.104C186.443 199.166 186.517 199.338 186.455 199.491C185.61 201.588 183.68 201.873 182.693 201.873Z"
          fill="#263238"/>
    <path d="M196.497 192.105C194.835 183.433 182.011 176.163 177.197 186.242C177.197 186.242 178.19 182.511 181.671 179.878C181.671 179.878 194.688 176.164 196.964 190.982L196.497 192.105Z"
          fill="#B3833C"/>
    <path d="M189.667 359.074C184.657 359.074 183.995 358.997 181.18 358.902C178.77 358.816 178.193 359.117 176.256 359.074C174.637 359.039 174.698 357.49 175.197 355.708C175.447 354.813 175.832 352.921 176.176 351.475L183.516 350.942C184.549 352.913 186.879 355.725 189.703 356.105C192.397 356.465 191.665 359.074 189.667 359.074Z"
          fill="#263238"/>
    <path d="M165.988 251.231C165.988 251.231 155.947 266.1 161.411 278.316C166.875 290.532 194.237 285.021 194.237 285.021L176.177 351.475L184.822 352.913C184.822 352.913 215.451 287.04 216.233 275.809C217.015 264.578 183.944 257.369 183.944 257.369L165.988 251.231Z"
          fill="#B3833C"/>
    <path opacity="0.3"
          d="M165.988 251.231C165.988 251.231 155.947 266.1 161.411 278.316C166.875 290.532 194.237 285.021 194.237 285.021L176.177 351.475L184.822 352.913C184.822 352.913 215.451 287.04 216.233 275.809C217.015 264.578 183.944 257.369 183.944 257.369L165.988 251.231Z"
          fill="white"/>
    <path opacity="0.2"
          d="M196.496 217.078C196.496 217.078 182.519 226.934 171.433 222.701C171.48 222.269 171.527 221.847 171.574 221.443C171.856 218.815 172.043 216.524 172.165 214.638C176.858 212.319 183.289 210.686 183.289 210.686C183.289 210.686 188.967 215.295 196.496 217.078Z"
          fill="black"/>
    <path d="M176.947 208.837C183.11 211.808 189.47 215.565 196.183 216.94C200.045 216.686 204.36 215.116 208.244 214.058C208.247 214.055 219.868 210.539 219.873 210.536C220.985 210.199 222.158 210.828 222.495 211.939C222.788 212.906 222.349 213.921 221.498 214.39C217.871 216.389 214.205 218.23 210.418 219.908C205.743 221.828 201.414 224.072 196.14 224.553C194.13 224.565 192.337 224.192 190.543 223.73C184.264 221.976 178.586 219.357 172.905 216.256C168.217 213.404 172.012 206.44 176.947 208.837Z"
          fill="#B97864"/>
    <path d="M173.69 207.727C168.305 209.006 168.12 218.262 173.071 222.594L185.067 212.465C185.067 212.465 180.084 206.208 173.69 207.727Z"
          fill="#B3833C"/>
    <path d="M220.227 210.587L226.881 210.424L223.86 217.16C223.86 217.16 217.914 216.946 218.153 213.888L220.227 210.587Z"
          fill="#B97964"/>
    <path d="M232.593 213.716L228.03 218.626L223.86 217.161L226.881 210.425L232.593 213.716Z" fill="#B97964"/>
    <path d="M321.882 291.554C326.533 301.177 331.014 310.798 334.042 321.101C335.43 328.088 335.685 335.219 336.206 342.167C336.565 347.915 336.779 353.662 336.857 359.431L331.71 359.963C330.083 351.853 328.552 342.809 327.125 334.624C326.454 330.923 325.928 327.284 324.995 323.723C321.455 314.554 316.547 305.117 312.475 296.099L321.882 291.554Z"
          fill="#DC897C"/>
    <path d="M329.56 304.147L321.41 308.087L316.35 310.537L313.28 303.157L310.07 295.427L312.78 281.337C321.1 284.937 329.56 304.147 329.56 304.147Z"
          fill="#B3833C"/>
    <path opacity="0.2"
          d="M321.409 308.087L316.349 310.537L313.279 303.157C313.909 298.977 314.439 295.427 314.439 295.427C314.439 295.427 320.36 300.697 321.409 308.087Z"
          fill="black"/>
    <path d="M296.946 255.751C297.038 256.347 297.429 256.781 297.819 256.721C298.209 256.661 298.45 256.129 298.357 255.533C298.265 254.937 297.874 254.503 297.484 254.563C297.094 254.623 296.853 255.155 296.946 255.751Z"
          fill="#263238"/>
    <path d="M297.374 256.789C297.374 256.789 299.262 260.017 301.012 261.445C300.11 262.593 298.248 262.421 298.248 262.421L297.374 256.789Z"
          fill="#DE5753"/>
    <path d="M294.25 252.78C294.164 252.776 294.079 252.741 294.014 252.675C293.877 252.536 293.878 252.311 294.018 252.174C295.414 250.798 297.014 251.129 297.083 251.144C297.274 251.186 297.395 251.375 297.353 251.566C297.311 251.757 297.12 251.877 296.933 251.837C296.88 251.826 295.628 251.582 294.515 252.679C294.442 252.75 294.346 252.784 294.25 252.78Z"
          fill="#263238"/>
    <path d="M298.858 264.787C298.788 265.667 298.608 266.507 298.338 267.307C297.828 268.797 296.998 270.127 295.948 271.207C294.828 272.357 293.458 273.227 291.968 273.737C289.218 274.677 286.068 274.387 283.298 272.327C279.018 269.147 278.458 264.817 276.878 257.567C275.288 250.317 281.608 243.677 289.108 245.447C296.728 247.257 299.408 257.967 298.858 264.787Z"
          fill="#E2BB91"/>
    <path d="M279.613 269.399C282.576 271.284 293.948 265.98 292.08 257.048C292.08 257.048 296.546 252.161 296.33 246.528C296.115 240.895 292.363 238.576 288.21 239.588C284.549 240.481 284.561 242.463 284.561 242.463C284.561 242.463 267.399 243.675 270.718 250.783C263.416 258.034 275.916 267.047 279.613 269.399Z"
          fill="#263238"/>
    <path d="M289.04 258.439C289.44 260.341 290.599 262.015 291.846 263.036C293.722 264.573 295.24 263.217 295.205 261.011C295.173 259.025 294.159 255.833 292.042 255.146C289.956 254.47 288.583 256.264 289.04 258.439Z"
          fill="#E2BB91"/>
    <path opacity="0.2"
          d="M298.338 267.307C297.828 268.797 296.998 270.127 295.948 271.207C294.828 272.357 293.458 273.227 291.968 273.737C290.318 272.907 289.048 271.967 289.048 271.967L290.568 268.237C290.568 268.237 295.206 270.522 298.338 267.307Z"
          fill="black"/>
    <path d="M282.05 278.552L280.769 269.777C280.769 269.777 286.48 265.808 292.455 268.468L301.427 279.317L282.05 278.552Z"
          fill="#E2BB91"/>
    <path d="M302.5 278.235L300.412 275.11C300.412 275.11 285.254 269.497 278.645 276.684C278.645 276.684 293.426 284.504 302.5 278.235Z"
          fill="#B3833C"/>
    <path opacity="0.2"
          d="M302.5 278.235L300.412 275.11C300.412 275.11 285.254 269.497 278.645 276.684C278.645 276.684 293.426 284.504 302.5 278.235Z"
          fill="black"/>
    <path d="M244.29 363.268L238.583 359.587L240.77 356.323L246.725 347.443L252.438 351.117L245.861 360.93L244.29 363.268Z"
          fill="#E2BB91"/>
    <path d="M238.973 359.116L246.926 359.04C247.194 359.039 247.427 359.223 247.488 359.484L248.834 365.301C248.949 365.822 248.621 366.338 248.1 366.453C248.03 366.468 247.959 366.476 247.888 366.476C245.314 366.459 243.439 366.319 240.208 366.349C238.218 366.368 232.215 366.633 229.467 366.66C226.719 366.686 226.335 363.975 227.457 363.714C232.493 362.567 236.276 361.006 237.878 359.542C238.174 359.265 238.567 359.112 238.973 359.116Z"
          fill="#263238"/>
    <path d="M240.536 354.109L251.004 356.931L307.784 313.844L278.654 307.471C274.381 306.536 269.977 308.356 267.61 312.034L240.536 354.109Z"
          fill="#263238"/>
    <path opacity="0.2"
          d="M240.536 354.109L251.004 356.931L307.784 313.844L278.654 307.471C274.381 306.536 269.977 308.356 267.61 312.034L240.536 354.109Z"
          fill="black"/>
    <path d="M209.499 363.479L203.604 360.106L205.615 356.73L211.09 347.547L216.989 350.913L210.943 361.061L209.499 363.479Z"
          fill="#E2BB91"/>
    <path d="M203.835 358.982H211.789C212.057 358.983 212.289 359.17 212.347 359.432L213.638 365.262C213.749 365.784 213.415 366.297 212.893 366.407C212.823 366.422 212.752 366.429 212.681 366.428C210.107 366.386 208.234 366.228 205.002 366.228C203.012 366.228 197.007 366.436 194.259 366.436C191.511 366.436 191.153 363.721 192.277 363.471C197.324 362.372 201.122 360.847 202.737 359.398C203.035 359.123 203.428 358.974 203.835 358.982Z"
          fill="#263238"/>
    <path d="M321.48 336.468C309.519 336.496 287.606 336.546 281.783 336.568C280.805 333.046 279.518 320.802 275.634 305.651C274.591 301.538 273.344 297.219 271.866 292.789C270.256 287.976 269.656 285.978 267.432 281.077C267.432 281.077 272.75 277.675 279.085 276.589C296.659 273.575 312.779 281.332 312.779 281.332C312.779 281.332 319.752 300.702 321.48 336.468Z"
          fill="#B3833C"/>
    <path opacity="0.2"
          d="M275.635 305.651C274.592 301.538 273.345 297.219 271.867 292.789L274.644 291.67C274.644 291.67 278.948 301.498 275.635 305.651Z"
          fill="black"/>
    <path d="M258.274 312.451L262.877 314.631L264.642 306.866C264.642 306.866 260.962 305.582 258.2 307.458L258.274 312.451Z"
          fill="#E2BB91"/>
    <path d="M269.488 317.255L269.703 310.184L264.643 306.866L262.877 314.632L269.488 317.255Z" fill="#E2BB91"/>
    <path d="M272.643 293.201C264.966 297.353 256.205 301.16 249.539 306.632C249.387 306.757 249.437 306.818 249.606 306.24C249.608 306.137 249.667 305.697 249.471 305.144C249.282 304.588 248.891 304.258 248.783 304.228C248.654 304.181 248.728 304.298 248.911 304.416C249.089 304.539 249.375 304.674 249.698 304.813C252.779 305.975 257.053 306.365 260.506 306.796L261.025 311.944C259.927 312.256 258.912 312.464 257.841 312.672C253.809 313.361 249.694 313.844 245.481 312.459C241.881 311.344 239.398 307.425 240.552 303.619C242.61 296.306 261.253 287.184 268.089 283.8L272.643 293.201Z"
          fill="#DC897C"/>
    <path d="M279.905 328.115L278.135 332.675C278.135 332.675 256.86 306.397 245.087 304.895C233.314 303.393 206.084 353.339 206.084 353.339L216.424 356.471L245.519 330.068C257.553 351.009 271.868 366.37 288.931 366.37C295.263 366.37 301.099 366.37 305.59 366.37C324.223 366.37 324.427 345.582 320.754 327.965L279.905 328.115Z"
          fill="#263238"/>
    <path d="M267.433 281.078C260.764 283.519 252.921 290.919 252.921 290.919C252.921 290.919 259.521 302.356 260.177 301.919C260.833 301.482 274.378 297.594 274.378 297.594C274.378 297.594 277.14 294.022 275.02 287.961C272.9 281.9 267.433 281.078 267.433 281.078Z"
          fill="#B3833C"/>
    <path d="M334.41 355.979L341.657 356.339L337.83 363.419C337.83 363.419 331.383 362.707 331.89 359.402L334.41 355.979Z"
          fill="#E2BB91"/>
    <path d="M347.602 360.377L342.245 365.347L337.83 363.418L341.657 356.338L347.602 360.377Z" fill="#E2BB91"/>
    <path d="M109.716 284.272C114.58 289.163 119.368 294.656 125.189 298.365C125.232 298.389 125.551 298.562 125.582 298.588C125.459 298.538 125.18 298.491 125.091 298.503C124.938 298.528 125.176 298.542 125.439 298.493C132.079 296.613 138.25 292.283 144.365 288.962C146.638 287.589 148.998 290.668 147.09 292.502C142.327 296.906 129.499 308.695 122.76 306.228C118.643 304.713 115.205 301.881 111.961 299.148C108.754 296.371 105.859 293.493 103.031 290.329C99.2189 285.797 105.576 280.03 109.716 284.272Z"
          fill="#E9B376"/>
    <path d="M118.08 291.193C117.226 297.548 112.063 303.79 112.063 303.79L111.002 303.086L105.736 299.594C105.736 299.594 105.642 299.294 105.492 298.768C105.342 298.289 105.154 297.623 104.919 296.815C103.708 292.582 101.53 284.65 101.258 281.355C107.792 281.121 110.73 284.228 118.08 291.193Z"
          fill="#B3833C"/>
    <path opacity="0.7"
          d="M118.08 291.193C117.226 297.548 112.063 303.79 112.063 303.79L111.002 303.086L105.736 299.594C105.736 299.594 105.642 299.294 105.492 298.768C105.342 298.289 105.154 297.623 104.919 296.815C103.708 292.582 101.53 284.65 101.258 281.355C107.792 281.121 110.73 284.228 118.08 291.193Z"
          fill="white"/>
    <path opacity="0.2"
          d="M111.002 303.086L105.736 299.594C105.736 299.594 105.642 299.294 105.492 298.768C105.661 297.304 105.952 295.708 106.374 293.99C106.374 293.99 110.815 297.107 111.002 303.086Z"
          fill="black"/>
    <path d="M104.6 322.546L109.087 330.41C121.113 327.609 159.667 321.728 164.401 334.955C170.285 351.393 127.763 364.497 104.229 365.299C80.6949 366.101 60.1719 360.494 75.0499 326.187L104.6 322.546Z"
          fill="#263238"/>
    <path opacity="0.2"
          d="M104.6 322.546L109.087 330.41C121.113 327.609 159.667 321.728 164.401 334.955C170.285 351.393 127.763 364.497 104.229 365.299C80.6949 366.101 60.1719 360.494 75.0499 326.187L104.6 322.546Z"
          fill="black"/>
    <path d="M157.586 358.193C157.532 358.226 157.463 358.223 157.413 358.184C157.366 358.151 157.35 358.091 157.372 358.038C157.449 357.776 158.228 355.514 159.017 355.276C159.187 355.235 159.366 355.287 159.487 355.413C159.71 355.598 159.817 355.887 159.767 356.173C159.639 356.596 159.381 356.968 159.029 357.236C158.581 357.602 158.098 357.923 157.586 358.193ZM157.788 357.758C158.521 357.436 159.116 356.863 159.464 356.142C159.505 355.945 159.427 355.743 159.265 355.624C159.221 355.569 159.147 355.548 159.08 355.57C159.013 355.593 158.952 355.629 158.899 355.675C158.406 356.297 158.03 357.003 157.788 357.758Z"
          fill="#263238"/>
    <path d="M157.544 358.222C157.491 358.242 157.432 358.224 157.398 358.179C157.325 358.116 156.238 356.744 156.417 355.818C156.46 355.587 156.595 355.382 156.792 355.251C156.962 355.088 157.222 355.063 157.419 355.192C157.988 355.593 157.918 357.428 157.639 358.124L157.619 358.194C157.597 358.21 157.571 358.22 157.544 358.222ZM156.927 355.533C156.829 355.618 156.763 355.734 156.738 355.862C156.625 356.447 157.171 357.326 157.466 357.747C157.645 356.963 157.587 355.676 157.254 355.444C157.218 355.425 157.15 355.371 156.982 355.489L156.927 355.533Z"
          fill="#263238"/>
    <path d="M116.215 362.049C116.246 361.994 116.308 361.964 116.371 361.973C116.427 361.979 116.472 362.025 116.477 362.081C116.537 362.347 116.95 364.705 116.375 365.294C116.246 365.413 116.064 365.454 115.897 365.402C115.613 365.349 115.379 365.147 115.285 364.873C115.192 364.441 115.237 363.991 115.416 363.586C115.631 363.047 115.898 362.533 116.215 362.049ZM116.249 362.527C115.764 363.164 115.521 363.953 115.564 364.753C115.624 364.945 115.79 365.084 115.989 365.109C116.055 365.136 116.13 365.119 116.178 365.067C116.226 365.015 116.262 364.954 116.285 364.887C116.416 364.105 116.404 363.306 116.249 362.527Z"
          fill="#263238"/>
    <path d="M131.619 350.141L121.938 353.589L117.288 355.245L118.48 360.333L122.983 359.374L133.982 357.03L131.619 350.141Z"
          fill="#EBB376"/>
    <path d="M119.748 360.574L118.933 354.571C118.888 354.237 118.575 354.006 118.241 354.061L115.28 354.554C115.28 354.554 111.249 354.933 110.448 355.966C108.107 358.986 109.57 372.311 111.13 372.78C111.701 372.952 112.304 372.169 112.553 371.628C113.342 369.912 114.731 365.42 115.407 363.997C116.196 362.333 118.361 361.518 119.334 361.226C119.614 361.142 119.788 360.865 119.748 360.574Z"
          fill="#B3833C"/>
    <path d="M116.238 362.003C116.275 361.96 116.336 361.947 116.387 361.97C116.482 361.99 118.096 362.664 118.388 363.561C118.462 363.784 118.443 364.029 118.334 364.239C118.265 364.464 118.049 364.611 117.814 364.594C117.123 364.519 116.295 362.879 116.202 362.135L116.186 362.064C116.197 362.04 116.215 362.018 116.238 362.003ZM118.08 364.057C118.124 363.934 118.126 363.801 118.086 363.678C117.901 363.111 116.998 362.605 116.537 362.38C116.76 363.152 117.433 364.251 117.837 364.292C117.878 364.291 117.964 364.305 118.053 364.12L118.08 364.057Z"
          fill="#263238"/>
    <path opacity="0.2" d="M131.619 350.141L121.938 353.589L122.983 359.374L133.982 357.03L131.619 350.141Z"
          fill="black"/>
    <path d="M124.699 360.244L127.484 360.445L125.619 350.865L122.461 352.612L124.699 360.244Z" fill="#B3833C"/>
    <path opacity="0.6" d="M124.699 360.244L127.484 360.445L125.619 350.865L122.461 352.612L124.699 360.244Z"
          fill="white"/>
    <path opacity="0.2"
          d="M84.3079 323.019L98.8099 339.099C98.8099 339.099 114.844 338.742 134.312 348.258C134.312 348.258 155.203 339.629 157.123 332.46C159.636 323.069 109.087 330.41 109.087 330.41L84.3079 323.019Z"
          fill="black"/>
    <path d="M104.45 329.476L74.8749 326.054C75.4049 323.245 75.7659 320.269 75.8959 316.804C76.0279 313.089 75.8859 308.815 75.3799 303.56C74.9729 299.347 74.3329 294.51 73.4059 288.828C72.6819 284.338 75.9109 280.48 80.3439 280.543C81.5319 280.564 82.7819 280.608 84.0629 280.693C89.0489 281.024 93.1369 281.338 97.4989 282.244C98.9379 282.542 100.427 282.903 101.858 283.266C106.993 284.601 110.171 291.054 109.73 296.288C109.482 299.207 109.595 301.463 108.386 308.356C107.48 314.203 106.409 319.936 104.45 329.476Z"
          fill="#B3833C"/>
    <path opacity="0.7"
          d="M104.45 329.476L74.8749 326.054C75.4049 323.245 75.7659 320.269 75.8959 316.804C76.0279 313.089 75.8859 308.815 75.3799 303.56C74.9729 299.347 74.3329 294.51 73.4059 288.828C72.6819 284.338 75.9109 280.48 80.3439 280.543C81.5319 280.564 82.7819 280.608 84.0629 280.693C89.0489 281.024 93.1369 281.338 97.4989 282.244C98.9379 282.542 100.427 282.903 101.858 283.266C106.993 284.601 110.171 291.054 109.73 296.288C109.482 299.207 109.595 301.463 108.386 308.356C107.48 314.203 106.409 319.936 104.45 329.476Z"
          fill="white"/>
    <path opacity="0.2"
          d="M75.8969 316.804C76.0289 313.089 75.8869 308.815 75.3809 303.56C79.0769 299.189 82.5809 295.572 82.5809 295.572C82.5809 295.572 88.3829 310.489 75.8969 316.804Z"
          fill="black"/>
    <path d="M80.5679 293.933C80.9079 300.265 80.8509 310.113 82.0039 316.168L81.6959 315.425C81.4949 315.135 81.6159 315.389 81.8249 315.584C82.0379 315.803 82.3519 316.072 82.6859 316.342C86.7319 319.352 91.4909 321.643 95.9959 324.035L101.69 326.97C102.806 327.532 103.25 328.899 102.677 330.009C102.193 330.948 101.138 331.401 100.154 331.166C97.9909 330.648 95.9099 330.025 93.8009 329.391C87.8019 327.366 81.6409 325.471 76.4769 321.559C75.8569 321.045 74.5889 319.828 74.2069 318.527C71.8979 310.33 71.7179 302.412 71.5449 294.053C71.7649 288.219 80.1999 288.106 80.5679 293.933Z"
          fill="#E9B376"/>
    <path d="M109.668 326.605L107.868 325.303C107.191 324.813 106.319 324.681 105.528 324.948L101.828 326.194C100.349 326.692 99.2029 327.876 98.7519 329.37L98.4729 330.295C101.31 332.659 106.118 333.124 106.118 333.124L107.474 333.408C108.681 333.661 109.813 332.959 110.073 331.795L110.671 329.116C110.878 328.191 110.479 327.191 109.668 326.605Z"
          fill="#EBB376"/>
    <path d="M77.873 280.944C72.086 283.013 70.433 288.059 70.314 298.573C73.317 301.296 82.421 301.448 82.421 301.448C82.421 301.448 83.981 285.513 77.873 280.944Z"
          fill="#B3833C"/>
    <path d="M147.888 332.394V334.777C147.888 335.389 147.168 335.639 146.564 335.639H98.9459C98.3339 335.639 97.5989 335.389 97.5989 334.777V332.394H147.888Z"
          fill="#263238"/>
    <path opacity="0.4"
          d="M147.888 332.394V334.777C147.888 335.389 147.168 335.639 146.564 335.639H98.9459C98.3339 335.639 97.5989 335.389 97.5989 334.777V332.394H147.888Z"
          fill="white"/>
    <path opacity="0.2"
          d="M147.888 332.394V334.777C147.888 335.389 147.168 335.639 146.564 335.639H115.157C114.546 335.639 113.821 335.389 113.821 334.777V332.394H147.888Z"
          fill="black"/>
    <path d="M155.855 307.654L150.187 333.366C150.002 334.213 149.178 334.827 148.346 334.827H117.381C116.556 334.827 116.027 334.058 116.218 333.211L121.88 307.696C122.071 306.856 122.888 306.438 123.72 306.438H154.686C155.517 306.438 156.04 306.814 155.855 307.654Z"
          fill="#263238"/>
    <path opacity="0.4"
          d="M155.855 307.654L150.187 333.366C150.002 334.213 149.178 334.827 148.346 334.827H118.433C117.601 334.827 117.078 334.058 117.262 333.211L122.931 307.696C123.115 306.856 123.939 306.438 124.771 306.438H154.684C155.517 306.438 156.04 306.814 155.855 307.654Z"
          fill="white"/>
    <path opacity="0.2"
          d="M140.588 320.722V320.73C140.588 322.931 138.228 324.72 136.498 324.72C134.768 324.72 133.742 322.931 134.235 320.73C134.728 318.572 136.45 316.813 138.143 316.747C137.65 318.948 138.707 320.73 140.429 320.73C140.466 320.73 140.588 320.73 140.588 320.722Z"
          fill="black"/>
    <path d="M145.503 293.333L152.157 293.501L149.142 286.762C149.142 286.762 143.196 286.97 143.432 290.029L145.503 293.333Z"
          fill="#EBB376"/>
    <path d="M157.872 290.215L153.312 285.301L149.142 286.762L152.156 293.501L157.872 290.215Z" fill="#EBB376"/>
    <path d="M82.5529 280.611C81.8699 280.563 83.9539 288.904 94.0459 290.965C104.138 293.026 103.372 283.737 102.577 281.41C102.577 281.41 89.3009 281.085 82.5529 280.611Z"
          fill="#EBB376"/>
    <path d="M85.3219 247.958C85.3219 247.958 91.1089 241.537 101.698 244.844C112.288 248.151 111.836 267.063 106.463 273.914C106.463 273.914 94.3329 273.218 81.3809 276.259C81.3809 276.259 76.2809 262.55 78.8099 254.493C81.3389 246.435 85.3219 247.958 85.3219 247.958Z"
          fill="#263238"/>
    <path d="M87.4469 266.811C88.1169 271.267 88.6389 279.351 85.4969 281.91C85.4969 281.91 89.6609 281.768 97.7309 288.146C100.664 284.827 98.9279 283.461 98.9279 283.461C94.1559 281.744 94.4269 278.152 95.4039 274.863L87.4469 266.811Z"
          fill="#EBB376"/>
    <path opacity="0.2"
          d="M90.69 270.096L95.399 274.859C95.165 275.637 94.975 276.432 94.887 277.216C93.057 276.735 90.611 274.405 90.494 272.438C90.437 271.456 90.515 270.529 90.69 270.096Z"
          fill="black"/>
    <path d="M84.7579 257.712C85.2639 264.841 85.3269 267.861 88.9219 271.667C94.3299 277.393 102.866 275.679 104.473 268.657C105.92 262.336 104.85 251.74 97.9259 248.606C91.1059 245.518 84.2529 250.583 84.7579 257.712Z"
          fill="#EBB376"/>
    <path d="M93.5349 259.903C93.5509 260.503 93.8739 261.002 94.2549 261.018C94.6359 261.034 94.9319 260.56 94.9149 259.96C94.8979 259.36 94.5759 258.861 94.1949 258.845C93.8139 258.829 93.5189 259.303 93.5349 259.903Z"
          fill="#263238"/>
    <path d="M100.968 259.982C100.985 260.582 101.307 261.081 101.688 261.097C102.069 261.113 102.365 260.639 102.348 260.039C102.331 259.439 102.009 258.94 101.628 258.924C101.247 258.908 100.951 259.382 100.968 259.982Z"
          fill="#263238"/>
    <path d="M101.461 258.95L102.85 258.592C102.85 258.592 102.162 259.689 101.461 258.95Z" fill="#263238"/>
    <path d="M98.7379 261.207C98.7379 261.207 99.7989 263.832 100.923 265.123C100.173 265.831 98.8549 265.438 98.8549 265.438L98.7379 261.207Z"
          fill="#D58745"/>
    <path d="M92.336 256.096C92.426 256.108 92.519 256.083 92.591 256.02C93.708 255.028 94.935 255.409 94.949 255.414C95.131 255.471 95.318 255.371 95.364 255.186C95.409 255.001 95.297 254.802 95.113 254.742C95.049 254.722 93.509 254.241 92.123 255.473C91.985 255.596 91.978 255.818 92.107 255.969C92.168 256.042 92.251 256.085 92.336 256.096Z"
          fill="#263238"/>
    <path d="M103.902 256.158C103.986 256.18 104.075 256.171 104.152 256.125C104.311 256.03 104.356 255.816 104.253 255.645C103.222 253.939 101.641 253.804 101.573 253.799C101.384 253.785 101.23 253.931 101.229 254.126C101.228 254.32 101.381 254.488 101.57 254.503C101.632 254.507 102.858 254.63 103.677 255.987C103.732 256.075 103.814 256.134 103.902 256.158Z"
          fill="#263238"/>
    <path d="M94.028 258.871L95.417 258.513C95.417 258.513 94.73 259.61 94.028 258.871Z" fill="#263238"/>
    <path d="M86.2409 261.984C86.2409 261.984 91.7429 257.668 90.4919 250.903C90.4919 250.903 100.328 247.021 104.208 256.941C104.208 256.941 105.034 248.458 95.7789 246.795C86.5239 245.132 75.5809 257.681 86.0629 267.188L86.2409 261.984Z"
          fill="#263238"/>
    <path d="M82.4859 263.467C83.2969 264.944 84.6429 265.888 85.8889 266.228C87.7629 266.739 88.5999 264.895 87.9959 262.995C87.4519 261.284 85.8219 258.957 83.9809 259.29C82.1679 259.618 81.5599 261.778 82.4859 263.467Z"
          fill="#EBB376"/>
    <path d="M105.289 261.107C105.201 261.107 105.119 261.048 105.094 260.96C101.56 248.529 89.9099 251.085 89.7919 251.111C89.6799 251.139 89.5739 251.069 89.5479 250.96C89.5229 250.851 89.5909 250.742 89.6999 250.717C89.8209 250.687 101.845 248.05 105.483 260.849C105.514 260.957 105.451 261.069 105.344 261.1C105.326 261.104 105.307 261.107 105.289 261.107Z"
          fill="#263238"/>
    <path d="M99.1959 267.51C98.7729 268.384 98.3399 270.028 98.3399 270.028C98.1839 270.016 98.0279 270.003 97.8729 269.983C95.7609 269.762 94.8529 268.962 94.4889 268.142C94.2909 267.692 94.2609 267.232 94.2849 266.862C94.3079 266.433 94.4229 266.133 94.4229 266.133C95.4729 266.919 97.4259 267.277 98.4779 267.424C98.9169 267.49 99.1959 267.51 99.1959 267.51Z"
          fill="#263238"/>
    <path d="M98.4779 267.423L98.2059 268.159C96.2169 267.946 94.8449 267.529 94.2849 266.861C94.3079 266.432 94.4229 266.132 94.4229 266.132C95.4729 266.919 97.4259 267.276 98.4779 267.423Z"
          fill="white"/>
    <path d="M97.8729 269.983C95.7609 269.762 94.8529 268.962 94.4889 268.142C95.2059 268.245 96.0589 268.449 96.7859 268.852C97.3429 269.158 97.6699 269.575 97.8729 269.983Z"
          fill="#DE5753"/>
    <path d="M97.5289 300.831C97.4639 300.831 97.4009 300.805 97.3559 300.755C88.4009 291 85.6469 280.969 85.6199 280.868C85.5859 280.743 85.6609 280.614 85.7859 280.581C85.9099 280.544 86.0399 280.622 86.0729 280.747C86.0989 280.845 88.7729 290.566 97.4259 300.136C98.0259 298.122 100.522 288.635 96.7729 281.358C96.7129 281.243 96.7589 281.101 96.8739 281.042C96.9869 280.983 97.1299 281.027 97.1899 281.144C101.478 289.466 97.7889 300.563 97.7509 300.673C97.7239 300.752 97.6579 300.811 97.5769 300.827C97.5619 300.83 97.5449 300.831 97.5289 300.831Z"
          fill="#263238"/>
    <path d="M97.8349 300.408L98.5989 301.38C98.7359 301.554 98.7369 301.799 98.6029 301.974L97.832 302.979C97.646 303.221 97.285 303.233 97.083 303.003L96.3639 302.183C96.2229 302.022 96.204 301.788 96.318 301.606L97.0439 300.449C97.2219 300.166 97.6279 300.145 97.8349 300.408Z"
          fill="white"/>
    <path opacity="0.7"
          d="M77.873 280.944C72.086 283.013 70.433 288.059 70.314 298.573C73.317 301.296 82.421 301.448 82.421 301.448C82.421 301.448 83.981 285.513 77.873 280.944Z"
          fill="white"/>
    <path d="M138.343 361.157L148.484 362.825L153.354 363.628L154.774 358.597L150.369 357.258L139.611 353.984L138.343 361.157Z"
          fill="#EBB376"/>
    <path d="M153.781 357.773L151.588 363.421C151.466 363.736 151.628 364.09 151.946 364.203L154.776 365.205C154.776 365.205 158.486 366.825 159.688 366.308C163.198 364.799 168.369 352.43 167.231 351.265C166.815 350.839 165.907 351.233 165.429 351.585C163.908 352.705 160.518 355.963 159.238 356.881C157.741 357.955 155.453 357.621 154.46 357.405C154.173 357.342 153.887 357.5 153.781 357.773Z"
          fill="#B3833C"/>
    <path opacity="0.2" d="M138.343 361.157L148.484 362.825L150.369 357.258L139.611 353.984L138.343 361.157Z"
          fill="black"/>
    <path d="M148.623 356.207C148.623 356.207 107.277 332.964 93.0109 333.625C78.7449 334.286 76.6859 346.864 82.5719 354.736C88.4579 362.608 99.3269 364.525 99.3269 364.525C99.3269 364.525 91.9269 354.067 92.9969 351.125C94.0659 348.183 98.2539 352.288 98.2539 352.288C98.2539 352.288 124.265 360.688 147.019 362.616L148.623 356.207Z"
          fill="#263238"/>
    <path d="M149.289 355.567L146.949 353.995L143.943 363.231H147.553L149.289 355.567Z" fill="#B3833C"/>
    <path opacity="0.6" d="M149.289 355.567L146.949 353.995L143.943 363.231H147.553L149.289 355.567Z" fill="white"/>
</svg>
