<svg width="758" height="803" viewBox="0 0 758 803" fill="none" xmlns="http://www.w3.org/2000/svg">
<path d="M57.4385 645.607C57.0385 649.607 49.8786 648.727 41.3386 646.197C52.2486 690.587 61.3285 722.467 62.3885 725.117C66.1285 734.477 161.579 738.217 161.579 738.217C161.579 738.217 213.048 509.787 209.628 371.457C202.858 379.237 195.889 385.287 192.809 381.697C188.179 376.297 199.648 353.767 207.638 339.627C204.058 306.327 195.708 281.737 180.408 272.417C98.5285 222.517 103.559 549.197 103.559 549.197C103.559 549.197 71.6085 338.697 23.0485 340.217C-22.2515 341.637 8.67852 508.097 35.4285 621.667C46.5785 630.237 57.9585 640.357 57.4385 645.607Z" fill="#6E9049"/>
<path d="M165.342 341.546C165.342 341.546 124.997 754.938 115.935 753.805C105.271 752.472 31.9325 414.456 31.9325 414.456" stroke="#415751" stroke-width="2" stroke-miterlimit="10"/>
<path d="M185.248 709.107H43.0284V801.487H185.248V709.107Z" fill="#AD373E"/>
<path d="M185.248 721.177H43.0284V723.177H185.248V721.177Z" fill="#5D3E00"/>
<path d="M185.248 787.827H43.0284V789.827H185.248V787.827Z" fill="#5D3E00"/>
<path d="M251.081 646.957L260.411 646.781C260.33 642.462 257.921 540.684 214.154 511.138C200.287 501.777 183.901 500.6 165.452 507.638L168.778 516.357C184.437 510.382 197.571 511.203 208.929 518.868C248.694 545.704 251.062 645.946 251.081 646.957Z" fill="#65877E"/>
<path d="M268.634 681.753L277.923 680.86C270.801 606.728 271.274 546.173 279.33 500.878C285.178 467.997 294.806 443.805 307.946 428.976C319.383 416.067 329.214 415.469 329.31 415.466L329.077 406.138C328.519 406.152 315.247 406.664 300.961 422.787C277.418 449.361 252.697 515.86 268.634 681.753Z" fill="#65877E"/>
<path d="M192.137 639.294L196.37 657.959L196.6 658.954L204.53 693.892L204.832 695.259L213.164 731.926L213.466 733.233L225.075 784.384L225.297 785.379L229.226 802.707H309.295L313.185 781.449L313.426 780.142L322.211 732.178L322.443 730.871L326.633 708.014L326.814 707.009L333.307 671.548L333.488 670.543L339.217 639.294H192.137Z" fill="#ED9F2A"/>
<path d="M283.79 639.295C289.242 647.613 289.376 657.944 289.535 670.474C289.668 681.258 289.828 693.482 293.441 707.278C297.173 721.581 309.904 728.673 322.207 732.178L322.447 730.872C310.53 727.46 298.306 720.608 294.721 706.931C291.162 693.295 291.003 681.164 290.87 670.46C290.71 658.303 290.576 647.852 285.284 639.295H283.79Z" fill="#69312C"/>
<path d="M204.53 693.895L204.837 695.255C205.704 695.322 206.57 695.348 207.45 695.348C229.124 695.348 246.773 678.979 246.773 658.851C246.773 651.653 244.52 644.948 240.615 639.296H238.988C243.067 644.881 245.44 651.613 245.44 658.851C245.44 678.246 228.391 694.015 207.45 694.015C206.463 694.015 205.49 693.975 204.53 693.895Z" fill="#69312C"/>
<path d="M213.168 731.925L213.461 733.231C219.206 731.351 225.258 730.538 231.523 730.818C250.052 731.644 268.22 742.028 282.696 760.051C292.787 772.621 303.038 779.806 313.182 781.445L313.422 780.139C303.611 778.566 293.627 771.515 283.736 759.211C269.02 740.882 250.504 730.325 231.576 729.485C225.192 729.206 219.02 730.032 213.168 731.925Z" fill="#69312C"/>
<path d="M304.815 461.623C308.805 474.08 273.018 500.976 257.243 512.097C278.951 534.708 303.147 548.842 326.375 557.568C333.516 542.586 351.354 507.988 360.891 514.511C369.589 520.463 358.873 549.469 352.156 565.308C395.038 575.149 429.268 568.8 429.268 568.8C439.127 550.695 445.586 532.976 449.456 515.93C429.278 500.082 392.329 468.036 402.953 464.175C412.001 460.876 436.999 471.141 454.091 479.166C454.902 450.621 449.208 424.96 441.652 403.869C420.524 406.873 372.565 412.06 375.551 396.627C378.195 382.99 408.473 374.817 426.965 371.067C417.687 353.984 409.615 344.19 409.615 344.19C323.132 335.888 321.382 407.453 321.382 407.453C248.103 372.412 215.209 448.28 215.209 448.28C221.299 461.963 228.1 474.144 235.415 484.979C258.533 472.035 301.12 450.068 304.815 461.623ZM392.799 440.164C392.799 435.695 397.673 432.065 403.69 432.065C409.707 432.065 414.581 435.695 414.581 440.164C414.581 444.642 409.707 448.263 403.69 448.263C397.673 448.263 392.799 444.641 392.799 440.164ZM330.236 499.658C330.236 495.641 333.24 492.397 336.944 492.397C340.639 492.397 343.643 495.64 343.643 499.658C343.643 503.666 340.639 506.919 336.944 506.919C333.24 506.919 330.236 503.666 330.236 499.658Z" fill="#415751"/>
<path d="M88.2405 581.31C90.9195 593.174 95.4115 605.517 102.277 618.127C102.277 618.127 126.11 622.553 155.956 615.688C151.277 604.651 143.826 584.483 149.878 580.337C156.516 575.805 168.941 599.865 173.913 610.303C190.082 604.225 206.93 594.387 222.033 578.644C211.049 570.913 186.136 552.197 188.922 543.519C191.495 535.468 221.141 550.77 237.23 559.782C242.309 552.237 247.054 543.759 251.293 534.229C251.293 534.229 228.391 481.416 177.377 505.81C177.377 505.81 176.164 455.996 115.966 461.768C115.966 461.768 110.341 468.593 103.889 480.483C116.766 483.096 137.84 488.788 139.68 498.278C141.747 509.009 108.381 505.41 93.6655 503.317C88.4005 517.993 84.4415 535.855 85.0005 555.744C96.8905 550.146 114.3 543.001 120.605 545.293C128.004 547.985 102.29 570.273 88.2405 581.31ZM176.617 523.578C176.617 519.392 181.176 516.007 186.801 516.007C192.426 516.007 196.986 519.393 196.986 523.578C196.986 527.75 192.426 531.136 186.801 531.136C181.176 531.136 176.617 527.75 176.617 523.578ZM161.888 569.993C161.888 567.207 163.982 564.941 166.554 564.941C169.127 564.941 171.22 567.207 171.22 569.993C171.22 572.792 169.127 575.045 166.554 575.045C163.982 575.045 161.888 572.792 161.888 569.993ZM126.231 530.936C126.231 528.15 128.311 525.884 130.897 525.884C133.47 525.884 135.563 528.15 135.563 530.936C135.563 533.735 133.47 536.001 130.897 536.001C128.311 536.001 126.231 533.735 126.231 530.936Z" fill="#415751"/>
<path d="M429.268 569.466C429.366 569.466 429.465 569.444 429.56 569.398C429.891 569.237 430.028 568.838 429.867 568.508C429.318 567.382 374.375 455.36 321.835 406.963C321.564 406.716 321.141 406.734 320.892 407.002C320.643 407.273 320.66 407.695 320.93 407.944C373.286 456.169 428.121 567.967 428.669 569.091C428.784 569.328 429.021 569.466 429.268 569.466Z" fill="#65877E"/>
<path d="M102.275 618.795C102.517 618.795 102.75 618.663 102.869 618.433C135.992 554.042 177.462 506.72 177.877 506.25C178.12 505.974 178.094 505.552 177.818 505.309C177.543 505.066 177.12 505.094 176.877 505.368C176.461 505.841 134.881 553.287 101.683 617.824C101.515 618.151 101.644 618.553 101.971 618.721C102.068 618.771 102.173 618.795 102.275 618.795Z" fill="#65877E"/>
<path d="M306.722 688.575C306.722 699.3 315.447 708.024 326.181 708.024C326.332 708.024 326.483 708.024 326.633 708.014L326.814 707.009C326.603 707.019 326.392 707.019 326.181 707.019C315.999 707.019 307.727 698.747 307.727 688.575C307.727 678.393 315.999 670.121 326.181 670.121C328.704 670.121 331.116 670.634 333.307 671.548L333.488 670.543C331.226 669.618 328.764 669.116 326.181 669.116C315.446 669.116 306.722 677.84 306.722 688.575Z" fill="#F7C84B"/>
<path d="M225.075 784.384L225.297 785.379C225.85 785.339 226.402 785.319 226.954 785.319C238.181 785.319 247.74 792.606 251.137 802.708H252.193C248.766 792.044 238.743 784.314 226.953 784.314C226.322 784.313 225.698 784.334 225.075 784.384Z" fill="#F7C84B"/>
<path d="M196.37 657.959L196.6 658.954C203.425 658.652 208.883 653.014 208.883 646.108C208.883 643.605 208.159 641.273 206.913 639.293H205.707C207.084 641.223 207.878 643.575 207.878 646.108C207.877 652.531 202.742 657.778 196.37 657.959Z" fill="#F7C84B"/>
<path d="M588.325 162.093C576.607 211.531 561.507 239.578 547.654 259.134C535.013 276.979 515.346 286.146 497.026 274.204L411.728 218.5L425.013 190.049L507.106 217.451L530.077 162.7C530.077 162.702 590.108 154.57 588.325 162.093Z" fill="#E2723A"/>
<path d="M677.267 168.858C677.267 168.858 702.248 225.21 705.734 263.553L554.106 256.001C554.106 256.001 554.106 183.963 559.335 165.954C564.563 147.944 677.267 168.858 677.267 168.858Z" fill="#ED9F2A"/>
<path d="M692.016 702.179L696.396 771.978L669.043 774.082L651.37 713.065L692.016 702.179Z" fill="#E2723A"/>
<path d="M542.576 713.569C542.576 714.933 542.576 774.032 542.576 774.032L515.754 776.305L498.479 712.205L542.576 713.569Z" fill="#E2723A"/>
<path d="M543.474 801.579L544.844 761.476C544.844 761.476 536.966 760.76 531.236 767.922H517.628C517.628 767.922 515.479 754.314 509.75 753.24L502.23 766.49L471.344 775.171C465.508 776.811 460.52 780.422 457.141 785.268C455.041 788.28 453.789 791.802 453.259 795.435L453.222 801.912L543.474 801.579Z" fill="#AD373E"/>
<path d="M512.622 191.497C512.622 191.497 530.405 207.199 587.095 217.716C643.774 228.244 740.305 168.883 740.305 168.883C740.305 168.883 708.743 124.466 684.778 113.949C680.573 112.105 674.711 109.415 667.521 106.802C661.549 104.628 654.666 102.509 647.069 100.984C634.357 98.4042 619.657 97.4492 603.871 100.567C596.724 101.972 589.358 104.223 581.86 107.538C559.706 117.319 530.473 131.249 512.622 191.497Z" fill="#ED9F2A"/>
<path d="M635.132 80.4742C635.132 80.4742 635.833 73.9282 641.678 67.6162C647.522 61.3042 660.848 30.4452 640.509 25.5352C640.509 25.5352 638.386 6.71321 612.886 1.18521C590.639 -3.63779 589.832 7.81721 589.832 7.81721C589.832 7.81721 568.913 5.33421 566.634 19.2242C564.209 34.0092 577.154 37.6932 577.154 37.6932C577.154 37.6932 571.019 48.7842 583.643 51.1222C596.268 53.4582 635.132 80.4742 635.132 80.4742Z" fill="#5D3E00"/>
<path d="M601.371 29.7252C590.442 29.1772 581.33 38.1042 581.174 49.0462C581.126 52.4442 580.989 56.7712 580.654 61.3452C579.9 71.6512 581.659 90.7562 604.032 90.0022C626.404 89.2482 627.039 49.5962 622.131 40.4812C618.876 34.4352 610.078 30.1622 601.371 29.7252Z" fill="#E2723A"/>
<path d="M620.167 50.4622C620.167 50.4622 632.945 39.5642 638.636 49.4982C644.875 60.3882 631.65 69.4062 618.727 66.4382C605.804 63.4692 622.394 53.8642 622.394 53.8642L620.167 50.4622Z" fill="#E2723A"/>
<path d="M604 81.1772L604.595 89.8392L605.246 99.3592L605.649 105.256C606.17 112.891 613.01 118.61 620.594 117.586C638.729 115.139 645.168 102.256 645.168 102.256L627.065 61.3342L604 81.1772Z" fill="#E2723A"/>
<path d="M604.595 89.8392L605.246 99.3592C619.538 95.9372 620.253 75.9922 620.253 75.9922C615.783 85.7512 606.906 89.1092 604.595 89.8392Z" fill="#402B00"/>
<path d="M633.946 54.2872C634.055 54.2872 634.167 54.2642 634.272 54.2122C634.643 54.0312 634.801 53.5892 634.624 53.2162C634.593 53.1512 633.845 51.6172 631.86 50.9682C629.877 50.3232 627.438 50.7712 624.606 52.3042C624.24 52.5012 624.105 52.9582 624.302 53.3232C624.501 53.6872 624.955 53.8242 625.321 53.6262C627.723 52.3262 629.807 51.8952 631.357 52.3872C632.733 52.8222 633.248 53.8262 633.269 53.8692C633.401 54.1332 633.669 54.2872 633.946 54.2872Z" fill="#402B00"/>
<path d="M601.761 58.7463C601.761 60.1033 602.528 61.2023 603.475 61.2023C604.422 61.2023 605.189 60.1023 605.189 58.7463C605.189 57.3893 604.422 56.2903 603.475 56.2903C602.528 56.2903 601.761 57.3903 601.761 58.7463Z" fill="#402B00"/>
<path d="M585.423 60.7452C586.37 60.7452 587.137 59.6457 587.137 58.2892C587.137 56.9328 586.37 55.8333 585.423 55.8333C584.477 55.8333 583.709 56.9328 583.709 58.2892C583.709 59.6457 584.477 60.7452 585.423 60.7452Z" fill="#402B00"/>
<path d="M601.699 48.5622C601.275 49.8352 603.63 49.9892 605.605 50.6462C607.58 51.3032 608.428 52.2162 608.852 50.9422C609.276 49.6682 608.018 48.1032 606.043 47.4462C604.067 46.7892 602.122 47.2882 601.699 48.5622Z" fill="#402B00"/>
<path d="M579.907 50.0902C580.203 51.3992 582.297 50.3112 584.327 49.8522C586.357 49.3932 587.555 49.7342 587.259 48.4252C586.963 47.1162 585.077 46.4272 583.047 46.8872C581.017 47.3462 579.611 48.7802 579.907 50.0902Z" fill="#402B00"/>
<path d="M626.075 42.7832L622.693 52.9242C622.693 52.9242 617.967 51.4472 617.376 44.5052C616.785 37.5632 607.037 32.0992 599.653 35.2002C592.268 38.3022 583.16 40.3302 577.154 37.6912C571.148 35.0522 581.93 18.8062 595.518 19.3962C609.105 19.9882 627.257 28.4562 626.075 42.7832Z" fill="#5D3E00"/>
<path d="M669.888 529.901C669.888 529.901 703.513 607.498 707.393 696.734L637.555 713.547L580.335 532.348C577.142 522.238 576.378 511.518 578.106 501.058L590.72 429.042L541.852 519.557C541.852 519.557 564.098 618.36 549.638 716.482L487.535 716.135L461.683 531.795C459.137 513.645 461.663 495.144 468.982 478.341L549.612 293.234L554.784 223.397L556.092 221.782C563.992 212.028 569.738 200.712 572.95 188.578L574.528 182.613L650.12 180.608C650.12 180.608 658.223 228.448 700.892 233.895L707.183 256.638C718.525 297.645 718.876 340.915 708.2 382.101L669.888 529.901Z" fill="#5D3E00"/>
<path d="M633.314 194.626L653.766 193.287C654.172 194.099 647.388 118.999 667.521 106.803C661.549 104.629 654.666 102.51 647.069 100.985C643.392 104.76 630.943 123.544 633.314 194.626Z" fill="#5D3E00"/>
<path d="M574.262 189.872L594.714 188.533C595.11 189.334 590.345 117.462 603.87 100.566C596.723 101.971 589.357 104.222 581.859 107.537C577.38 119.855 572.725 143.941 574.262 189.872Z" fill="#5D3E00"/>
<path d="M590.72 429.04L593.839 380.269L562.529 480.875L590.72 429.04Z" fill="#402B00"/>
<path d="M592.778 69.1012C593.254 69.1012 593.766 69.0632 594.313 68.9722C594.723 68.9042 595 68.5172 594.931 68.1072C594.863 67.6962 594.48 67.4172 594.066 67.4892C591.93 67.8442 590.483 67.2592 589.834 66.8962L592.7 55.4312C592.801 55.0292 592.556 54.6202 592.153 54.5192C591.754 54.4192 591.342 54.6632 591.242 55.0672L588.131 67.5112L588.497 67.8122C588.571 67.8742 590.1 69.1012 592.778 69.1012Z" fill="#402B00"/>
<path d="M593.575 77.4192C593.596 77.4192 593.617 77.4182 593.638 77.4162C599.901 76.8952 600.675 72.5022 600.705 72.3162C600.771 71.9062 600.491 71.5202 600.082 71.4542C599.676 71.3862 599.29 71.6652 599.221 72.0722C599.197 72.2112 598.56 75.4982 593.513 75.9182C593.099 75.9522 592.792 76.3162 592.827 76.7292C592.859 77.1222 593.188 77.4192 593.575 77.4192Z" fill="#402B00"/>
<path d="M689.577 760.069C694.286 758.525 699.177 761.917 699.424 766.867L699.79 774.2L700.268 802.669L643.537 801.716C643.537 801.716 641.868 786.595 653.548 778.491L662.606 773.962L662.362 767.777C662.246 764.827 665.04 762.621 667.883 763.417L668.089 763.474C668.089 763.474 674.287 746.312 688.112 760.614C688.112 760.614 688.683 760.363 689.577 760.069Z" fill="#AD373E"/>
<path d="M682.995 776.596C683.221 776.596 683.445 776.495 683.593 776.302C683.845 775.973 683.784 775.502 683.455 775.249C683.183 775.041 676.688 770.177 665.72 773.167C665.319 773.276 665.083 773.69 665.192 774.091C665.301 774.49 665.718 774.725 666.115 774.618C676.327 771.832 682.478 776.396 682.54 776.443C682.675 776.546 682.836 776.596 682.995 776.596Z" fill="#402B00"/>
<path d="M668.845 768.301C668.972 768.301 669.101 768.269 669.22 768.201C676.825 763.822 685.758 767.943 685.848 767.985C686.223 768.16 686.671 768.003 686.848 767.627C687.026 767.251 686.866 766.803 686.49 766.626C686.097 766.441 676.765 762.125 668.469 766.898C668.109 767.105 667.985 767.565 668.193 767.924C668.332 768.166 668.585 768.301 668.845 768.301Z" fill="#402B00"/>
<path d="M644.445 796.605H700.319C700.735 796.605 701.071 796.269 701.071 795.853C701.071 795.437 700.735 795.101 700.319 795.101H644.445C644.029 795.101 643.693 795.437 643.693 795.853C643.693 796.268 644.029 796.605 644.445 796.605Z" fill="#402B00"/>
<path d="M508.273 774.024C508.285 774.024 508.297 774.024 508.31 774.022C508.725 774.003 509.045 773.65 509.025 773.236C508.758 767.622 502.694 765.838 502.435 765.764C502.035 765.654 501.622 765.883 501.508 766.282C501.394 766.68 501.626 767.095 502.024 767.21C502.24 767.273 507.308 768.78 507.523 773.306C507.541 773.71 507.874 774.024 508.273 774.024Z" fill="#402B00"/>
<path d="M497.019 776.715C497.435 776.715 497.771 776.379 497.771 775.963C497.771 770.339 492.648 768.657 492.596 768.641C492.204 768.519 491.781 768.735 491.655 769.13C491.529 769.524 491.747 769.947 492.142 770.074C492.31 770.128 496.268 771.459 496.268 775.963C496.267 776.378 496.603 776.715 497.019 776.715Z" fill="#402B00"/>
<path d="M454.011 794.902H454.014L542.893 794.532C543.309 794.531 543.643 794.193 543.642 793.777C543.641 793.363 543.305 793.028 542.891 793.028H542.887L454.008 793.398C453.592 793.399 453.258 793.737 453.259 794.153C453.261 794.567 453.597 794.902 454.011 794.902Z" fill="#402B00"/>
<path d="M542.75 782.484C543.166 782.484 543.502 782.148 543.502 781.732C543.502 781.316 543.166 780.98 542.75 780.98C538.91 780.98 536.073 779.895 534.32 777.755C531.327 774.101 532.409 768.49 532.42 768.433C532.502 768.026 532.238 767.63 531.831 767.548C531.421 767.467 531.029 767.729 530.946 768.135C530.894 768.393 529.707 774.488 533.15 778.701C535.203 781.211 538.433 782.484 542.75 782.484Z" fill="#402B00"/>
<path d="M692.014 702.93C692.034 702.93 692.054 702.928 692.074 702.927C692.488 702.895 692.797 702.532 692.764 702.118C684.725 600.915 648.166 531.995 645.561 527.202C647.193 520.498 676.447 400.317 688.035 351.858C699.948 302.042 683.815 254.822 683.651 254.35C683.514 253.958 683.08 253.751 682.694 253.889C682.302 254.026 682.095 254.454 682.231 254.847C682.394 255.314 698.381 302.134 686.573 351.509C674.711 401.112 644.337 525.876 644.031 527.13L643.961 527.416L644.106 527.674C644.494 528.367 682.998 598.156 691.266 702.238C691.298 702.632 691.626 702.93 692.014 702.93Z" fill="#402B00"/>
<path d="M560.849 705.821L480.953 705.959L481.432 726.543L558.934 727.841L560.849 705.821Z" fill="#734D00"/>
<path d="M714.55 689.742L628.222 708.734L633.943 729.339L717.233 712.586L714.55 689.742Z" fill="#734D00"/>
<path d="M430.47 193.641C430.47 193.641 424.298 164.326 420.698 164.84C417.098 165.354 417.098 183.355 417.098 183.355C417.098 183.355 403.425 178.568 400.707 181.455C397.989 184.342 400.707 187.74 400.707 187.74C400.707 187.74 396.291 186.551 395.442 189.608C394.593 192.665 397.65 195.043 397.65 195.043C397.65 195.043 393.743 195.383 393.573 198.44C393.403 201.497 396.97 202.686 396.97 202.686C396.97 202.686 393.743 202.516 392.894 205.064C392.045 207.612 404.953 218.992 420.07 223.068C435.187 227.146 430.47 193.641 430.47 193.641Z" fill="#E2723A"/>
<path d="M433.678 364.937C433.678 364.937 282.185 406.504 302.965 609.314" stroke="#97C9BC" stroke-miterlimit="10"/>
<path d="M429.943 357.78C429.943 357.78 314.527 360.986 280.544 484.736" stroke="#97C9BC" stroke-miterlimit="10"/>
<path d="M688.054 122.146C725.551 158.596 742.362 186.744 752.329 209.307C761.424 229.896 759.142 252.113 738.92 261.997L624.183 318.076L606.057 291.319L694.096 223.132L667.268 172.466C667.268 172.466 682.348 116.6 688.054 122.146Z" fill="#E2723A"/>
<path d="M747.892 179.989C747.892 179.989 718.268 125.747 684.783 113.944C651.298 102.141 641.325 173.673 689.194 218.944C689.194 218.944 726.213 205.335 747.892 179.989Z" fill="#ED9F2A"/>
<path d="M606.454 347.86L594.827 346.707L600.517 289.351C600.983 284.647 599.357 280.011 596.055 276.631C592.753 273.251 588.156 271.516 583.444 271.873C579.171 272.194 575.29 274.167 572.511 277.427C569.731 280.687 568.396 284.832 568.752 289.102L570.327 307.987L558.685 308.959L557.11 290.074C556.494 282.677 558.806 275.493 563.622 269.846C568.436 264.198 575.164 260.781 582.564 260.223C590.727 259.606 598.692 262.611 604.413 268.468C610.134 274.325 612.951 282.357 612.143 290.504L606.454 347.86Z" fill="#F7C84B"/>
<path d="M483.705 306.59L483.728 306.646L484.133 307.782L500.618 353.641L505.219 366.46H505.229L514.81 393.123L514.923 393.472L521.771 412.499L522.176 413.623L524.436 419.92L623.957 357.813L619.167 353.101L618.312 352.257L607.112 341.237L606.831 340.967L596.418 330.734L596.204 330.52L570.07 304.813L570.058 304.802L569.226 303.992L557.812 292.781L557.295 292.252L538.549 273.832L537.683 272.978L537.638 272.933L483.705 306.59Z" fill="#F7C84B"/>
<path d="M431.605 364.315L519.287 394.996L503.76 353.555L434.301 355.562L431.605 364.315Z" fill="#F7C84B"/>
<path d="M423.987 371.795L437.411 363.061L438.696 356.561L430.812 346.731L423.987 371.795Z" fill="#F7C84B"/>
<path d="M514.943 393.502L505.321 364.128L504.404 389.836L514.943 393.502Z" fill="#69312C"/>
<path d="M607.006 340.895C606.783 341.034 606.484 341.009 606.288 340.817L596.355 331.09C596.125 330.864 596.119 330.494 596.345 330.263C596.571 330.038 596.941 330.029 597.172 330.255L607.105 339.981C607.335 340.207 607.341 340.577 607.115 340.808C607.081 340.842 607.045 340.871 607.006 340.895Z" fill="#69312C"/>
<path d="M569.285 303.96C569.062 304.099 568.765 304.074 568.569 303.882L557.928 293.463C557.697 293.237 557.692 292.867 557.918 292.636C558.143 292.411 558.514 292.402 558.745 292.628L569.386 303.047C569.616 303.273 569.62 303.643 569.394 303.874C569.36 303.906 569.324 303.936 569.285 303.96Z" fill="#69312C"/>
<path d="M434.55 365.588C434.416 365.671 434.249 365.7 434.085 365.656C433.775 365.57 433.592 365.248 433.677 364.937L436.443 354.911C436.529 354.602 436.852 354.419 437.161 354.503C437.472 354.589 437.654 354.911 437.569 355.222L434.803 365.248C434.763 365.394 434.67 365.513 434.55 365.588Z" fill="#69312C"/>
<path d="M619.168 353.099L522.175 413.627L521.771 412.499L618.31 352.254L619.168 353.099Z" fill="#69312C"/>
<path d="M537.637 272.932L496.88 265.786L483.7 306.59L537.637 272.932Z" fill="#F7C84B"/>
<path d="M499.536 270.544L496.691 256.002L487.207 262.641L499.536 270.544Z" fill="#F7C84B"/>
<path d="M483.728 306.646L484.133 307.782L538.549 273.832L537.683 272.978L483.728 306.646Z" fill="#69312C"/>
<path d="M625.169 278.097C625.169 278.097 609.418 272.427 609.418 274.947C609.418 277.467 610.993 281.562 610.993 281.562C610.993 281.562 596.188 284.082 594.298 288.177C592.408 292.272 597.447 294.792 597.447 294.792C597.447 294.792 591.778 296.682 592.408 300.777C593.038 304.872 597.132 305.502 597.132 305.502C597.132 305.502 592.722 306.132 593.982 310.227C595.242 314.322 596.818 314.952 596.818 314.952C596.818 314.952 593.352 315.267 595.242 319.047C597.132 322.827 614.458 327.867 639.659 310.227L625.169 278.097Z" fill="#E2723A"/>
<path d="M678.226 112.298C678.226 112.298 656.077 138.748 689.194 218.943" stroke="#F7C84B" stroke-miterlimit="10"/>
<path d="M554.74 210.464C554.74 210.464 557.053 140.834 565.391 115.817" stroke="#F7C84B" stroke-miterlimit="10"/>
<path d="M702.485 157.427C704.808 161.45 709.215 163.253 712.329 161.455C715.443 159.657 716.085 154.938 713.763 150.916C711.441 146.893 707.033 145.09 703.919 146.888C700.804 148.686 700.163 153.405 702.485 157.427Z" stroke="#F7C84B" stroke-miterlimit="10"/>
<path d="M694.096 223.132C694.096 223.132 701.653 221.527 710.142 225.408" stroke="#402B00" stroke-miterlimit="10" stroke-linecap="round"/>
<path d="M507.106 217.453C507.106 217.453 510.5 219.396 512.683 226.428" stroke="#402B00" stroke-miterlimit="10" stroke-linecap="round"/>
<path d="M401.077 205.455C401.077 205.455 409.332 209.513 406.394 211.611C403.456 213.71 397.44 209.093 397.44 209.093" stroke="#402B00" stroke-miterlimit="10" stroke-linecap="round"/>
<path d="M401.077 196.78C401.077 196.78 411.15 202.672 409.332 205.734C407.896 208.152 401.077 205.454 401.077 205.454" stroke="#402B00" stroke-miterlimit="10" stroke-linecap="round"/>
<path d="M406.563 191.845C406.383 191.754 405.599 191.289 405.599 191.289C405.599 191.289 417.296 198.724 413.938 200.962C410.58 203.201 401.078 196.78 401.078 196.78" stroke="#402B00" stroke-miterlimit="10" stroke-linecap="round"/>
<path d="M408.913 184.188C409.333 184.188 419.127 190.204 416.888 193.142C414.878 195.781 407 191.987 405.414 191.187" stroke="#402B00" stroke-miterlimit="10" stroke-linecap="round"/>
<path d="M610.711 294.244C609.766 294.559 597.447 294.793 597.447 294.793" stroke="#402B00" stroke-miterlimit="10" stroke-linecap="round"/>
<path d="M610.397 305.583L597.133 305.503" stroke="#402B00" stroke-miterlimit="10" stroke-linecap="round"/>
<path d="M607.877 315.347L596.818 314.954" stroke="#402B00" stroke-miterlimit="10" stroke-linecap="round"/>
</svg>
