<svg xmlns="http://www.w3.org/2000/svg" data-name="Layer 1" viewBox="0 0 512 512" id="notification"><path fill="#00efd1" d="M456.16,398.45H55.84c0-31.73,22.51-65.74,52.52-73.23a49.875,49.875,0,0,1,12.24-1.53H391.4a49.851,49.851,0,0,1,10.68,1.16C432.86,331.53,456.16,366.17,456.16,398.45Z"></path><path fill="#00acea" d="M212.3 98.2a146.647 146.647 0 0 1 85.7 0c60.36 18.54 104.33 75.25 104.33 142.54v82.95l-.25 1.16a49.851 49.851 0 0 0-10.68-1.16H120.6a49.875 49.875 0 0 0-12.24 1.53l-.38-1.53V240.74A149.317 149.317 0 0 1 151.1 135.37 146.731 146.731 0 0 1 212.3 98.2zM325.5 399.39v7.96a68.834 68.834 0 0 1-19.88 48.02 66.633 66.633 0 0 1-47.52 20.39c-36.85 0-67.41-31.56-67.41-68.41v-8.9H325.5z"></path><path fill="#00efd1" d="M298,79.09V98.2a146.647,146.647,0,0,0-85.7,0V79.09a42.85,42.85,0,1,1,85.7,0Z"></path></svg>