<svg width="512" height="512" viewBox="0 0 512 512" fill="none" xmlns="http://www.w3.org/2000/svg">
<path d="M456.16 398.45H55.8398C55.8398 366.72 78.3498 332.71 108.36 325.22C112.361 324.205 116.472 323.691 120.6 323.69H391.4C394.991 323.691 398.572 324.08 402.08 324.85C432.86 331.53 456.16 366.17 456.16 398.45Z" fill="#00EFD1"/>
<path d="M212.3 98.1998C240.229 89.6665 270.071 89.6665 298 98.1998C358.36 116.74 402.33 173.45 402.33 240.74V323.69L402.08 324.85C398.572 324.08 394.991 323.691 391.4 323.69H120.6C116.472 323.691 112.361 324.205 108.36 325.22L107.98 323.69V240.74C107.873 201.3 123.375 163.42 151.1 135.37C168.118 118.116 189.144 105.346 212.3 98.1998ZM325.5 399.39V407.35C325.403 425.339 318.267 442.576 305.62 455.37C299.458 461.763 292.079 466.861 283.919 470.362C275.758 473.864 266.98 475.699 258.1 475.76C221.25 475.76 190.69 444.2 190.69 407.35V398.45H325.5V399.39Z" fill="#00ACEA"/>
<path d="M298 79.0902V98.2002C270.07 89.6669 240.229 89.6669 212.3 98.2002V79.0902C212.3 73.4631 213.408 67.8911 215.562 62.6922C217.715 57.4934 220.871 52.7697 224.85 48.7907C228.829 44.8117 233.553 41.6554 238.752 39.502C243.951 37.3486 249.523 36.2402 255.15 36.2402C260.777 36.2402 266.349 37.3486 271.548 39.502C276.747 41.6554 281.47 44.8117 285.449 48.7907C289.428 52.7697 292.585 57.4934 294.738 62.6922C296.891 67.8911 298 73.4631 298 79.0902Z" fill="#00EFD1"/>
<circle cx="377" cy="115" r="79" fill="#FF3B3B"/>
</svg>
